<svg xmlns="http://www.w3.org/2000/svg" viewBox="0 0 435.24 413.92"><defs><style>.cls-1{fill:none;stroke:#485c5a;stroke-miterlimit:10;stroke-width:4px;}</style></defs><title>circles_redraw-halved</title><g id="Layer_2" data-name="Layer 2"><g id="redraw"><polyline id="outsideCircle1" class="cls-1" points="217.59 207.14 238.79 142.56 291.96 104.47 358.82 104.47 413.01 143.88 433.13 207.14 412.54 270.74 358.28 309.72 292.19 309.72 238.48 271.3 217.3 206.69 271.9 167.7 338.3 167.88 391.8 206.56 412.25 268.04 391.79 333.56 337.04 373.41 270.62 373.41 217.61 334.46 196.84 269.83 218.39 207.09 286.59 207.09 338.06 246.4 358.56 308.21 338.8 371.26 284.47 411.91 216.58 411.91 163.24 372.25 143.1 309.09 163.24 246.05 218.05 207.14 272.11 246.89 292.5 308.61 272.11 372.41 219.45 411.37 149.92 411.91 97.49 373.43 75.98 308.88 96.7 246.03 150.04 207.14 216.4 206.51"/><polyline id="outsideCircle2" class="cls-1" points="216.4 206.51 238.89 271.06 218.35 334.21 164.8 372.77 95.74 372.6 43.25 333.5 22.27 269.04 43.5 206.36 96.9 167.55 162.57 167.22 216.63 205.03 197.97 270.61 143.87 309.98 76.88 309.98 22.7 271.91 2.1 207.09 23.31 142.04 77.11 103.89 143.72 104.5 197.36 143.11 217.59 205.98 163.71 246.8 96.94 246.96 43.46 208.19 22.78 145.24 43.3 80.31 98.55 40.33 164.85 41.24 218.34 80.69 237.95 142.5 218.46 204.48"/><polyline id="outsideCircle1-2" data-name="outsideCircle1" class="cls-1" points="217.05 206.81 150.14 207.75 96.74 168.32 76.04 105.33 96.36 42.71 151.58 2 219.63 2 272.13 41.13 292.6 105.03 271.45 167.04 218.8 206.47 162.68 166.44 142.81 105.03 163.13 42.03 215.78 2.6 285.27 2.53 339.35 42.79 358.31 103.44 338.75 167.04 286.33 206.32 218.17 206.51 196.73 141.98 216.96 80.67 270.85 40.72 335.79 40.66 392.17 80.55 412.68 142.43 392.68 206.96 338.9 246.07 272.61 246.53 218.28 206.74"/><polyline id="insideCircle" class="cls-1" points="217.59 104.89 250.21 104.94 304.03 143.71 324.89 207.01 304.64 269.85 250.58 309.23 184.17 309.23"/><polyline id="insideCircle2" class="cls-1" points="184.17 309.17 130.52 269.79 110.27 207.14 130.72 143.96 184.17 104.89 217.59 104.89"/></g></g></svg>