<?xml version="1.0" encoding="utf-8"?>
<!-- Generator: Adobe Illustrator 21.1.0, SVG Export Plug-In . SVG Version: 6.00 Build 0)  -->
<svg version="1.1" xmlns="http://www.w3.org/2000/svg" xmlns:xlink="http://www.w3.org/1999/xlink" x="0px" y="0px"
	 viewBox="0 0 432.4 412.4" style="enable-background:new 0 0 432.4 412.4;" xml:space="preserve">
<style type="text/css">
	.st0{display:none;}
	.st1{display:inline;}
	.st2{fill:#485C5A;}
	.st3{fill:none;stroke:#485C5A;stroke-width:4;stroke-miterlimit:10;}
</style>
<g id="Layer_1" class="st0">
	<title>circles</title>
	<g id="Layer_2" class="st1">
		<g id="Shapes">
			<path class="st2" d="M216.3,412.4c-21.1,0-42.2,0-63.3,0c-2.3,0.1-4.6-0.6-6.5-2c-34.2-24.9-68.5-49.8-102.8-74.6
				c-1.9-1.3-3.3-3.3-4-5.5c-13-40.3-26.1-80.5-39.2-120.7c-0.7-2.1-0.7-4.4,0-6.4C13.7,162.7,26.8,122.4,39.8,82
				c0.6-2.1,2-4,3.8-5.2c34.4-24.9,68.7-49.9,103-74.9c1.8-1.3,4-2,6.2-1.9c42.2,0.1,84.4,0.1,126.7,0c2.3-0.1,4.6,0.7,6.5,2.1
				c34.2,24.9,68.5,49.8,102.8,74.7c1.9,1.3,3.3,3.3,4,5.5c13,40,26,80,39,120c0.9,2.5,0.9,5.3,0,7.8
				c-13.1,40.2-26.2,80.4-39.2,120.7c-0.6,1.9-1.8,3.5-3.4,4.7c-34.5,25-68.9,50-103.3,75.1c-1.7,1.3-3.7,2-5.8,1.9
				C258.8,412.3,237.5,412.4,216.3,412.4z M94.2,245.9L42.1,208l-19.9,61.3l52.2,37.9L94.2,245.9z M338.4,166.2
				c4,3.7,49.6,36.6,52.3,37.6l19.7-60.7l-52.2-37.9L338.4,166.2z M93.9,166.9c-0.5-4.1-18.6-59.1-20.1-61.2l-51.6,37.5l19.9,61.3
				L93.9,166.9z M268.4,40l-52-37.8c-6.3,3.7-50.2,36-51.9,38.1l51.7,37.5L268.4,40z M164.1,372.4l52.2,37.9l52.2-37.9l-52.2-37.9
				L164.1,372.4z M410.1,269.4c-1.6-7.6-18.7-59-20.3-61.1l-51.6,37.5l19.9,61.3L410.1,269.4z M160.7,41.3H96.2l-19.8,60.9h64.5
				L160.7,41.3z M356,102.2c-0.4-1.5-0.7-2.7-1.1-3.9c-5.8-17.8-11.6-35.7-17.4-53.5c-1.2-3.7-1.2-3.7-5.1-3.7h-60.6l19.9,61.1H356z
				 M160.7,371.2L141,310.3H76.5l19.8,60.9L160.7,371.2z M356.1,310.2h-64.5c-6.6,20.3-13.2,40.5-19.8,61h64.4L356.1,310.2z
				 M76.1,104.5l19.8,61h24.8c0.4-1.2,0.9-2.3,1.2-3.4c1.9-5.7,3.8-11.3,5.5-17c0.5-1.8,1.6-3.4,3.2-4.4c5.1-3.6,10.1-7.3,15.1-10.9
				c0.8-0.6,1.6-1.3,2.4-2l-7.6-23.3L76.1,104.5z M336.6,165.6l19.8-61.1H292l-7.6,23.4c1.2,0.9,2.1,1.7,3,2.3
				c4.6,3.4,9.2,6.8,14,10.1c1.9,1.2,3.2,3.1,3.8,5.2c1.5,5.2,3.3,10.2,5,15.4c0.5,1.5,1.1,3.1,1.6,4.7H336.6z M269.8,41.4
				l-52.2,37.9l7.7,23.7h3.8c5.9,0,11.7,0.1,17.6,0c2-0.1,4,0.5,5.5,1.8c3.7,2.8,7.6,5.6,11.4,8.3c2,1.4,4,2.8,6,4.3l20.1-14.6
				L269.8,41.4z M162.7,41.4l-19.9,61.3l20,14.5c1.1-0.8,2.1-1.4,3-2.1c4.8-3.5,9.7-7,14.5-10.6c1.5-1.2,3.3-1.7,5.2-1.7
				c5.5,0.1,11,0,16.5,0h5.1l7.7-23.7L162.7,41.4z M95.1,244.1l20-14.5c-0.2-1-0.4-1.8-0.6-2.5c-1.9-5.8-3.7-11.6-5.7-17.4
				c-0.9-2.3-0.9-4.8,0-7.1c2-5.6,3.7-11.3,5.6-17c0.3-0.9,0.4-1.8,0.7-2.8l-19.8-14.4c-8,4.9-50.1,35.9-51.8,38.2L95.1,244.1z
				 M337.4,168.3l-20,14.5c0.3,1.1,0.5,2,0.8,2.9c1.9,5.8,3.7,11.6,5.7,17.4c0.7,2,0.7,4.1,0,6.1c-2,5.8-3.8,11.6-5.7,17.4
				c-0.3,1-0.5,2-0.8,3.1l20,14.5l52.2-37.9L337.4,168.3z M142.8,309.7l19.9,61.3l52.2-37.9l-7.7-23.6h-3.7c-5.7,0-11.5-0.1-17.2,0
				c-2.3,0.1-4.6-0.7-6.4-2.1c-3.4-2.7-7-5.1-10.5-7.7l-6.4-4.6L142.8,309.7z M289.8,309.7l-20.2-14.6c-6.1,4.4-11.9,8.6-17.7,12.9
				c-1.4,1.1-3.1,1.6-4.9,1.6c-6.1-0.1-12.2,0-18.3,0c-1.1,0-2.3,0.1-3.5,0.2l-7.6,23.5l52.1,37.9L289.8,309.7z M95.9,247l-19.8,61
				h64.5l7.6-23.5c-5.4-4-10.5-7.8-15.7-11.4c-2.8-1.7-4.8-4.5-5.6-7.6c-1.4-5.2-3.2-10.3-4.9-15.4c-0.3-1.1-0.8-2.1-1.1-3.1H95.9z
				 M311.7,247c-0.4,1.1-0.8,2-1.1,3c-1.8,5.6-3.8,11.1-5.4,16.7c-0.6,2.2-2,4.2-4,5.5c-4.7,3.3-9.3,6.7-14,10.1
				c-0.9,0.7-1.8,1.4-2.9,2.3l7.6,23.2c7.1,0.7,61.6,0.4,64.3-0.4L336.6,247H311.7z M220,410.1c1.6,0.1,2.4,0.3,3.2,0.3
				c19,0,38,0,57,0c1.8,0,3.5-0.6,4.8-1.7c15.2-11.1,30.5-22.2,45.8-33.3c0.7-0.5,1.3-1.1,2.4-2.1c-1.8-0.1-2.9-0.2-4-0.2
				c-18.3,0-36.6,0-54.9,0c-2.3-0.1-4.6,0.7-6.5,2.1c-14.8,10.9-29.7,21.7-44.6,32.5C222.3,408.3,221.5,409,220,410.1z M332.4,39.2
				l0.2-0.7c-0.4-0.4-0.8-0.8-1.3-1.1C315.7,26,300,14.6,284.3,3.3c-1.2-0.9-2.7-1.3-4.2-1.3c-19.1,0-38.2,0-57.4,0
				c-0.9,0.1-1.8,0.2-2.7,0.3c1,0.8,1.5,1.3,2,1.7c15.5,11.2,30.9,22.5,46.4,33.8c1.5,1.1,3.4,1.6,5.2,1.5c18.5,0,37.1,0,55.6,0
				L332.4,39.2z M99.4,39c1.7,0.1,2.7,0.2,3.7,0.2c18.7,0,37.3,0,56,0c2,0,3.9-0.6,5.5-1.9c14.9-10.9,29.9-21.8,44.9-32.7
				c0.9-0.7,1.8-1.4,3.2-2.5c-1.4-0.1-2-0.2-2.7-0.2c-19.2,0-38.5,0-57.7,0c-1.8,0-3.4,0.7-4.8,1.8c-15.1,11-30.2,21.9-45.2,32.9
				C101.5,37.2,100.7,37.9,99.4,39z M100,373.3l-0.5,0.8c0.5,0.2,1,0.5,1.5,0.8c15.7,11.4,31.5,22.9,47.3,34.3
				c1.2,0.8,2.5,1.1,3.9,1.1c19.1,0.1,38.2,0.1,57.3,0c0.9-0.1,1.8-0.2,2.7-0.4c-1.1-0.9-1.8-1.5-2.6-2.1
				c-15.1-11-30.1-21.9-45.2-32.9c-1.7-1.3-3.7-1.9-5.8-1.9c-18.4,0.1-36.8,0-55.2,0C102.3,373.2,101.2,373.3,100,373.3z
				 M411.4,265.7c0.5-1.3,0.8-1.9,1-2.4c6-18.4,12-36.8,17.9-55.2c0.4-1.3,0.4-2.7,0-4c-5.9-18.3-11.8-36.6-17.8-54.8
				c-0.3-0.8-0.7-1.6-1.2-2.4c-0.5,1.5-0.9,2.5-1.2,3.5c-5.7,17.6-11.4,35.2-17.2,52.8c-0.7,2-0.7,4.1,0,6.1
				c5.8,17.6,11.5,35.2,17.2,52.8C410.4,263,410.8,264,411.4,265.7z M23.5,139.5c0.5-0.3,1.1-0.5,1.6-0.9
				c15.8-11.5,31.7-23,47.5-34.5c1-0.8,1.8-1.8,2.2-3c6.1-18.5,12.1-37,18-55.5c0.1-0.7,0.2-1.4,0.2-2.1c-0.8,0.4-1.2,0.6-1.5,0.9
				C75.8,55.9,60,67.3,44.3,78.7c-1.2,0.9-2.1,2.2-2.5,3.7c-5.9,18.2-11.7,36.3-17.7,54.5C23.9,137.6,23.8,138.4,23.5,139.5z
				 M21.1,265.9c0.5-1.5,0.9-2.4,1.2-3.4c5.8-17.7,11.5-35.4,17.3-53.1c0.7-2.1,0.7-4.4,0-6.5c-5.8-17.7-11.6-35.4-17.3-53.1
				c-0.3-0.9-0.7-1.8-1.2-3.1c-0.3,0.5-0.6,1.1-0.8,1.6c-6,18.6-12.1,37.2-18.1,55.8c-0.5,1.6-0.4,3.3,0.2,4.8
				c5.9,17.9,11.7,35.9,17.5,53.8C20.2,263.6,20.6,264.5,21.1,265.9z M409.3,139.9c-0.4-1.3-0.4-1.7-0.6-2.1c-6-18.5-12-37-18-55.5
				c-0.5-1.5-1.6-2.9-2.9-3.8c-15.3-11.1-30.6-22.2-45.8-33.3c-0.7-0.5-1.5-1-2.8-1.8c0.4,1.5,0.6,2.4,0.9,3.2
				c5.8,17.8,11.6,35.7,17.3,53.5c0.6,2,1.9,3.8,3.7,4.9c15.1,10.9,30.2,21.9,45.3,32.9C407,138.4,407.8,138.9,409.3,139.9
				L409.3,139.9z M409.2,272.9c-1.1,0.7-1.9,1.1-2.5,1.5c-15.4,11.2-30.9,22.4-46.4,33.6c-1.3,0.9-2.3,2.3-2.8,3.9
				c-5.9,18.2-11.8,36.3-17.7,54.4c-0.2,0.7-0.4,1.5-0.8,2.8c1.1-0.6,1.7-0.9,2.2-1.3c15.5-11.3,31.1-22.6,46.6-33.9
				c1.4-1,2.4-2.5,2.9-4.2c5.8-17.8,11.5-35.6,17.3-53.5C408.5,275.3,408.7,274.3,409.2,272.9L409.2,272.9z M23.5,272.9
				c0.1,0.8,0.2,1.5,0.4,2.2c6,18.5,12,37,18.1,55.5c0.5,1.3,1.3,2.4,2.5,3.2c15.5,11.3,31,22.6,46.6,33.9c0.7,0.4,1.4,0.8,2.1,1.2
				c0-0.5-0.1-1-0.2-1.5c-6-18.6-12.1-37.2-18.1-55.8c-0.6-1.7-1.7-3.1-3.2-4c-15-10.9-30-21.7-45-32.6
				C25.8,274.3,24.9,273.7,23.5,272.9L23.5,272.9z M222.1,207.7l-0.1,0.8c0.4,0.4,0.9,0.7,1.3,1.1c15.6,11.4,31.3,22.8,46.9,34.2
				c1.3,0.9,2.8,1.2,4.3,1.1c10.9,0,21.8,0,32.7,0c1,0,2-0.1,3.2-0.2l4.7-14.4c-0.5-0.3-0.9-0.5-1.2-0.8
				c-9.5-6.9-18.9-13.8-28.5-20.6c-1.2-0.7-2.5-1-3.9-1c-18.8-0.1-37.5,0-56.3,0L222.1,207.7z M122.1,244.5c0.4,0.1,0.8,0.2,1.3,0.3
				c11.9,0,23.9,0.1,35.9,0c1.1-0.1,2.2-0.5,3.1-1.2c15.5-11.2,30.9-22.4,46.4-33.6c0.7-0.5,1.3-1.1,2.4-2.1
				c-1.2-0.1-1.7-0.1-2.2-0.1c-19.4,0-38.9,0-58.3-0.1c-1.4,0-2.7,0.5-3.8,1.4c-9,6.6-18,13.1-27,19.6c-0.7,0.5-1.4,1.2-2.2,1.9
				L122.1,244.5z M208.8,105c-0.3,0.4-0.5,0.9-0.7,1.4c-3.6,11.1-7.3,22.3-10.8,33.5c-0.3,1.2-0.2,2.5,0.2,3.7
				c5.8,18.2,11.7,36.4,17.7,54.5c0.3,0.8,0.6,1.6,1.1,2.7c0.3-0.5,0.6-1.1,0.8-1.7c6.1-18.6,12.1-37.2,18.2-55.8
				c0.4-1.5,0.3-3-0.3-4.4c-2.6-8-5.2-16-7.9-24.1L224,105H208.8z M219.3,202.1c1.8-1.2,2.9-2,4-2.8c14.9-10.8,29.8-21.7,44.7-32.4
				c1.5-1.1,2.6-2.6,3.1-4.4c3.2-10.1,6.6-20.3,9.9-30.4c0.4-1.1,0.6-2.2,1-3.4l-12.2-8.8c-0.7,0.4-1,0.5-1.3,0.7
				c-9.5,6.9-19,13.8-28.5,20.6c-1.1,0.9-1.9,2.1-2.2,3.4c-5.8,17.9-11.6,35.9-17.4,53.8C220,199.4,219.8,200.4,219.3,202.1
				L219.3,202.1z M310.3,167.9c-0.5-0.1-0.9-0.2-1.4-0.3c-11.8,0-23.7,0-35.5,0c-1,0-2,0.4-2.8,1c-15.8,11.4-31.5,22.8-47.2,34.3
				c-0.5,0.4-0.9,0.8-1.8,1.6c1.3,0.1,2,0.2,2.6,0.2c19.3,0,38.7,0,58,0.1c1.5-0.1,3-0.6,4.1-1.6c8.7-6.3,17.4-12.7,26.2-19
				c0.8-0.6,1.6-1.3,2.5-2L310.3,167.9z M213.1,202c-0.4-1.6-0.6-2.6-0.9-3.6c-5.9-18.1-11.8-36.1-17.5-54.2
				c-0.5-1.4-1.4-2.7-2.7-3.5c-8.9-6.5-17.9-12.9-26.8-19.4c-0.7-0.5-1.6-0.9-2.4-1.5l-12.2,8.9c3.9,12,7.6,23.6,11.5,35.2
				c0.5,1,1.2,1.9,2.2,2.6c15.2,11.1,30.3,22.1,45.5,33.1C210.6,200.3,211.6,200.9,213.1,202z M220.1,210.9l-0.6,0.3
				c0.1,0.5,0.3,1.1,0.5,1.6c6,18.5,12,37,18,55.5c0.5,1.4,1.5,2.6,2.8,3.4c8.9,6.5,17.8,12.9,26.8,19.4c0.7,0.5,1.5,1,2.4,1.5
				l12-8.8c0-0.5-0.1-1.1-0.2-1.6c-3.6-11.1-7.3-22.3-10.8-33.4c-0.5-1.3-1.4-2.4-2.6-3.1l-45.8-33.3
				C221.6,211.9,220.8,211.4,220.1,210.9L220.1,210.9z M162.7,292.6c0.4-0.2,0.8-0.4,1.2-0.6c9.6-7,19.2-13.9,28.7-20.9
				c1-0.8,1.6-1.9,2-3.1c5.8-17.7,11.6-35.4,17.3-53.1c0.4-1.2,0.7-2.4,1.2-4.2c-1.3,0.8-2,1.1-2.6,1.5
				c-15.6,11.3-31.1,22.6-46.7,33.9c-1.1,0.8-1.9,2-2.3,3.4c-3.4,10.5-6.8,21-10.2,31.4c-0.3,1-0.5,2-0.7,3L162.7,292.6z
				 M117.6,181.9c0.3,0.4,0.6,0.7,1,1.1c9.5,6.9,18.9,13.8,28.5,20.6c1.2,0.7,2.5,1.1,3.9,1c18.5,0.1,37.1,0,55.6,0h3.7
				c-0.5-1-1.2-1.9-2.1-2.5c-15.3-11.1-30.5-22.2-45.8-33.3c-1.3-1-2.9-1.4-4.6-1.3c-10.8,0-21.6,0-32.4,0c-1,0-2.1,0.1-3.3,0.2
				L117.6,181.9z M223.8,307.4c0.2-0.3,0.4-0.7,0.6-1c3.7-11.2,7.4-22.5,11-33.7c0.3-1.1,0.3-2.3-0.1-3.4
				c-5.9-18.4-11.9-36.7-17.9-55.1c-0.3-0.8-0.7-1.6-1.1-2.3c-0.4,0.8-0.6,1.2-0.7,1.7c-6.1,18.7-12.1,37.4-18.2,56.1
				c-0.3,1.1-0.3,2.3,0.1,3.3c3.4,10.6,6.8,21.2,10.2,31.8c0.3,0.9,0.7,1.7,1.1,2.7L223.8,307.4z M309.3,165.5
				c-0.1-0.6-0.1-1.2-0.3-1.8c-2-6.1-3.9-12.3-6-18.4c-0.5-1.3-1.4-2.4-2.5-3.2c-4.9-3.7-9.8-7.2-14.8-10.8
				c-0.7-0.4-1.4-0.8-2.2-1.1l-11.4,35.2L309.3,165.5z M123,165.4c5.9,0.7,34.3,0.4,37.3-0.3L148.8,130c-3,2.2-5.6,4-8.1,5.9
				c-3.5,2.6-7.8,4.5-10.2,7.9s-3.1,8.2-4.5,12.5C124.9,159.1,124,162.1,123,165.4z M226,104.8l11.5,35.4c4-2,28.4-20,30-22.1
				c-5.7-4.1-11.3-8.3-17.1-12.3c-1.1-0.7-2.3-1-3.6-1c-4.4-0.1-8.9,0-13.3,0C233.5,104.8,226,104.8,226,104.8z M164.8,118.3
				c4.9,4.5,27.9,20.9,30.4,21.6l11.2-34.6c-0.6-0.3-0.8-0.4-1-0.4c-6.9,0-13.8-0.1-20.8,0c-0.8,0-1.6,0.3-2.3,0.7
				C176.6,109.7,170.8,114,164.8,118.3z M285.2,206.2c10.3,7.5,20.1,14.7,30.4,22c2.4-7.4,4.7-14.1,6.8-20.9
				c0.2-1.1,0.1-2.3-0.4-3.4c-1.8-5.7-3.6-11.4-5.5-17c-0.3-0.8-0.7-1.6-1.1-2.7L285.2,206.2z M116.7,227.9
				c4.7-2.4,28.3-19.9,30-22.1l-29.8-21.7c-2.4,7.4-4.6,14.2-6.8,21.1c-0.2,0.7-0.2,1.3,0,2C112.2,214.1,114.4,220.9,116.7,227.9z
				 M237.6,271.9c-3.9,12.1-7.8,23.6-11.5,35.6c7.9,0,15.1,0,22.4-0.1c1-0.2,2-0.6,2.8-1.3c4.9-3.5,9.7-7,14.5-10.5
				c0.7-0.6,1.4-1.2,2-1.9L237.6,271.9z M148.8,282.5c3.9-12.2,7.9-23.7,11.4-35.5h-36.9c-0.1,0.3-0.1,0.6-0.1,0.9
				c2.1,6.6,4.2,13.1,6.4,19.7c0.3,0.9,0.9,1.6,1.6,2.2C136.9,273.9,142.6,278,148.8,282.5L148.8,282.5z M195,272.1
				c-6.1,3.5-28.4,20.1-29.9,22.2c5.3,3.9,10.6,7.6,15.9,11.6c1.5,1.1,3.3,1.7,5.2,1.6c5.6-0.1,11.2,0,16.9,0c1,0,2-0.1,3.4-0.2
				L195,272.1z M283.7,282.5c6.3-4.6,12.1-8.7,17.8-13c0.8-0.8,1.4-1.8,1.7-2.9c1.6-4.5,3-9.1,4.5-13.7c0.6-1.9,1.1-3.8,1.8-5.9
				h-37.3L283.7,282.5z M334.1,168.3l-0.3-0.6h-21.4c1.5,4.5,2.5,8.8,4.5,13.2L334.1,168.3z M120.1,167.8c-6.4-0.6-19.3-0.4-22,0.4
				l17.7,12.8L120.1,167.8z M216.6,82.4l-0.8-0.1l-6.7,20.7c4.9-0.1,9.3,0.2,14-0.2L216.6,82.4z M271.2,293.9l17.5,12.7l0.6-0.4
				l-6.7-20.6L271.2,293.9z M143.8,105.8l-0.6,0.5l6.7,20.5l11.4-8.3L143.8,105.8z M282.7,126.8l6.7-20.7l-0.6-0.4l-17.5,12.7
				L282.7,126.8z M209.2,309.7l6.7,20.4h0.7l6.6-20.4H209.2z M149.8,285.6c-2.3,7.3-4.7,13.9-6.7,21.1c5.4-3.1,16-11.1,17.6-13.2
				L149.8,285.6z M98.5,244l0.3,0.8c7,0,14,0.1,21.3-0.1c-1.4-4.7-2.6-8.9-4.3-13.2L98.5,244z M312.4,244.6h21.5l0.2-0.5l-17.4-12.6
				L312.4,244.6z"/>
		</g>
	</g>
	<polyline id="outsideCircle1" class="st3" points="216.2,206.2 237.4,141.7 290.6,103.6 357.4,103.6 411.6,143 431.7,206.2 
		411.2,269.9 356.9,308.8 290.8,308.8 237.1,270.4 215.9,205.8 270.5,166.8 336.9,167 390.4,205.7 410.9,267.2 390.4,332.7 
		335.6,372.5 269.2,372.5 216.2,333.6 195.4,268.9 217,206.2 285.2,206.2 336.7,245.5 357.2,307.3 337.4,370.4 283.1,411 215.2,411 
		161.9,371.4 141.7,308.2 161.9,245.2 216.7,206.2 270.7,246 291.1,307.7 270.7,371.5 218.1,410.5 148.5,411 96.1,372.5 74.6,308 
		95.3,245.1 148.6,206.2 215,205.6 237.5,270.2 217,333.3 163.4,371.9 94.3,371.7 41.9,332.6 20.9,268.2 42.1,205.5 95.5,166.7 
		161.2,166.3 215.2,204.1 196.6,269.7 142.5,309.1 75.5,309.1 21.3,271 0.7,206.2 21.9,141.2 75.7,103 142.3,103.6 196,142.2 
		216.2,205.1 162.3,245.9 95.6,246.1 42.1,207.3 21.4,144.4 41.9,79.4 97.2,39.4 163.5,40.4 217,79.8 236.6,141.6 215.7,205.9 
		148.8,206.9 95.4,167.4 74.7,104.4 95,41.8 150.2,1.1 218.2,1.1 270.7,40.2 291.2,104.1 270.1,166.2 217.4,205.6 161.3,165.5 
		141.4,104.1 161.7,41.1 214.4,1.7 283.9,1.6 338,41.9 356.9,102.6 337.4,166.2 284.9,205.4 216.8,205.6 195.3,141.1 215.6,79.8 
		269.5,39.8 334.4,39.8 390.8,79.7 411.3,141.5 391.3,206.1 337.5,245.2 271.2,245.6 216.9,205.9 	"/>
</g>
<g id="redraw">
	<polyline id="outsideCircle1_1_" class="st3" points="216.2,206.2 237.4,141.7 290.6,103.6 357.4,103.6 411.6,143 431.7,206.2 
		411.2,269.9 356.9,308.8 290.8,308.8 237.1,270.4 215.9,205.8 270.5,166.8 336.9,167 390.4,205.7 410.9,267.2 390.4,332.7 
		335.6,372.5 269.2,372.5 216.2,333.6 195.4,268.9 217,206.2 285.2,206.2 336.7,245.5 357.2,307.3 337.4,370.4 283.1,411 215.2,411 
		161.9,371.4 141.7,308.2 161.9,245.2 216.7,206.2 270.7,246 291.1,307.7 270.7,371.5 218.1,410.5 148.5,411 96.1,372.5 74.6,308 
		95.3,245.1 148.6,206.2 215,205.6 	"/>
	<polyline id="outsideCircle2_2_" class="st3" points="215,205.6 237.5,270.2 217,333.3 163.4,371.9 94.3,371.7 41.9,332.6 
		20.9,268.2 42.1,205.5 95.5,166.7 161.2,166.3 215.2,204.1 196.6,269.7 142.5,309.1 75.5,309.1 21.3,271 0.7,206.2 21.9,141.2 
		75.7,103 142.3,103.6 196,142.2 216.2,205.1 162.3,245.9 95.6,246.1 42.1,207.3 21.4,144.4 41.9,79.4 97.2,39.4 163.5,40.4 
		217,79.8 236.6,141.6 217.1,203.6 	"/>
	<polyline id="outsideCircle1_2_" class="st3" points="215.7,205.9 148.8,206.9 95.4,167.4 74.7,104.4 95,41.8 150.2,1.1 218.2,1.1 
		270.7,40.2 291.2,104.1 270.1,166.2 217.4,205.6 161.3,165.5 141.4,104.1 161.7,41.1 214.4,1.7 283.9,1.6 338,41.9 356.9,102.6 
		337.4,166.2 284.9,205.4 216.8,205.6 195.3,141.1 215.6,79.8 269.5,39.8 334.4,39.8 390.8,79.7 411.3,141.5 391.3,206.1 
		337.5,245.2 271.2,245.6 216.9,205.9 	"/>
	<polyline id="insideCircle" class="st3" points="216.2,104 248.8,104.1 302.6,142.8 323.5,206.1 303.3,269 249.2,308.3 
		182.8,308.3 	"/>
	<polyline id="insideCircle2" class="st3" points="182.8,308.3 129.1,268.9 108.9,206.2 129.3,143.1 182.8,104 216.2,104 	"/>
</g>
</svg>
