<?xml version="1.0" encoding="utf-8"?>
<!-- Generator: Adobe Illustrator 21.1.0, SVG Export Plug-In . SVG Version: 6.00 Build 0)  -->
<svg version="1.1" xmlns="http://www.w3.org/2000/svg" xmlns:xlink="http://www.w3.org/1999/xlink" x="0px" y="0px"
	 viewBox="0 0 399 424.6" style="enable-background:new 0 0 399 424.6;" xml:space="preserve">
<style type="text/css">
	.st0{display:none;}
	.st1{display:inline;}
	.st2{fill:#485C5A;}
	.st3{fill:none;stroke:#485C5A;stroke-width:4;stroke-miterlimit:10;}
</style>
<g id="Layer_1" class="st0">
	<title>hex</title>
	<g id="Layer_2" class="st1">
		<g id="Shapes">
			<path class="st2" d="M163.1,21.7c10.9-6,21.4-11.9,32-17.7c9.9-5.4,6.1-5.4,15.8,0.3C220,9.6,229.1,15,238,20.6
				c2.9,1.8,5.4,2.5,8.3,0.2c1.8-1.3,4-2,5.8-3.3c3.2-2.3,5.8-2.1,9.3,0c17.5,10.8,35.3,21.3,53,32C323.6,55,332.7,60.7,342,66
				c3.2,1.8,4.6,4,4.4,7.7s-1.1,8.4,0.5,11.5c1.5,2.9,5.9,4.3,9.1,6.2c9.6,5.8,19.2,11.6,29.1,17.5c0,2.8,0,5.5,0,8.2
				c-0.1,11.2-0.2,22.5-0.5,33.7c-0.1,3,0.9,4.8,3.5,6.1s4.9,3.1,7.5,4.4s3.5,3.3,3.4,6.2c-0.4,12.8-0.6,25.6-0.8,38.3
				c-0.4,19.4-0.7,38.9-1,58.3c0,1.2-0.2,2.4-0.3,3.8c-3.2,1.8-6.4,3.8-9.8,5.4s-4.7,3.7-4.7,7.5c0,11.9-0.5,23.9-0.5,35.8
				c0,3.7-1.2,5.8-4.5,7.5c-10.7,5.7-21.2,11.7-31.8,17.5c-2.7,1.5-4.1,3.2-3.9,6.4c0.2,2.4-0.4,4.8,0,7.1c0.6,4.3-1.6,6.3-5.1,8.2
				c-17.8,9.7-35.5,19.6-53.2,29.4l-28.6,15.8c-1.5,0.8-3,1.6-4.6,2.5c-3.6-2.1-7.2-4-10.6-6.3c-2.6-1.8-4.8-1.7-7.5-0.2
				c-11,6.2-22,12.3-33.1,18.4c-0.9,0.5-1.8,1-3.3,1.7l-39-23.4l-14.9,7.9l-89.2-53.6c0-4-0.2-7.9,0.1-11.8c0.3-3.7-1-5.9-4.2-7.7
				c-10.5-6-20.7-12.5-31.2-18.6c-2.7-1.6-3.8-3.3-3.7-6.5C14,299,14,287,14.5,275.1c0.1-4-0.6-7-4.6-8.5c-1.6-0.6-2.8-2-4.4-2.6
				c-4.6-1.8-5.4-5.1-5.3-9.6c0.7-31.2,1.2-62.4,1.5-93.6c0-3.4,1.1-5.5,4.2-6.7c0.2-0.1,0.3-0.2,0.4-0.3c3.3-2,7.9-3.3,9.6-6.3
				s0.7-7.6,0.8-11.5c0.2-9.9,0.5-19.8,0.5-29.7c0-3,1.2-4.6,3.7-6c10.8-5.8,21.4-11.9,32.3-17.7c3.1-1.7,4.6-3.7,4.3-7.2
				c-0.2-2.7,0.2-5.5,0-8.2s0.9-4.3,3.3-5.6c9.3-5,18.5-10.2,27.8-15.3c18.8-10.4,37.6-20.7,56.3-31.3c2.9-1.6,5.1-1.9,7.9,0.1
				C155.8,17.6,159.3,19.4,163.1,21.7z M163,345.7c0,2.4,0.1,4.8,0,7.1s0.9,3.7,2.8,4.9c9.3,5.5,18.7,11.1,28,16.8
				c1.7,1.2,3.9,1.2,5.7,0.1c9.5-5.3,19-10.6,28.6-15.8c1.9-0.9,3-2.8,2.9-4.9c0.1-4.2-0.1-8.5,0.4-12.7c0.4-3.5-1.1-5.2-3.9-6.8
				c-6.4-3.6-12.6-7.4-18.8-11.2c-3-1.8-5.8-3.5-9.5-2c-1.3,0.3-2.7,0.2-4-0.3c-2.3-0.8-4.8-0.4-6.8,0.9c-5.3,3-10.5,6.3-16.1,8.8
				C165.3,333.5,161.1,337.6,163,345.7L163,345.7z M291.6,122.3c-0.2,10.1-0.5,19.8-0.7,29.5c0,1.2,6.6,13.7,7.6,14.3
				c7.9,4.8,15.8,9.4,23.6,14.2c1.4,1,3.3,0.9,4.7-0.1c4.3-2.4,8.6-4.9,12.9-7.2c1.6-0.7,2.5-2.3,2.4-4.1
				c0.2-11.2,0.4-22.4,0.7-33.7c0.2-1.7-0.7-3.4-2.3-4.2c-10.4-6.2-20.7-12.4-31.2-18.7L291.6,122.3z M93.1,108.7
				c-10.8,6-21.2,11.8-31.7,17.5c-1.9,0.9-2.9,2.9-2.8,4.9c0,10.7-0.1,21.4-0.4,32.1c-0.1,2.5,0.7,4.1,2.9,5.4c4,2.2,8,4.6,11.8,7.1
				c1.7,1.2,3.9,1.2,5.6,0c7.5-4.3,15.4-8,22.6-12.8c4.6-3,6.1-8.9,8.8-13.5c0.2-9.2,0.4-18.4,0.6-27.5c0.1-1.7-0.8-3.4-2.4-4.1
				C103.2,114.8,98.3,111.8,93.1,108.7z M235.7,88.6c0-6,0-11.9,0-17.8c0.1-1.7-0.9-3.3-2.4-4.1c-9.5-5.6-18.9-11.3-28.4-17.1
				c-1.5-1.1-3.6-1.2-5.2-0.1c-9.6,5.4-19.3,10.8-29,16.1c-1.9,0.9-3,2.9-2.7,4.9c0,4.4,0.1,8.9-0.2,13.3c-0.2,3,1.1,4.6,3.5,6
				c6.6,3.8,13.3,7.6,19.7,11.8c5.5,3.7,11.6,0.3,17.1,2.2c0.2,0.1,0.6-0.2,0.9-0.4L235.7,88.6z M340,276.7h0.7
				c0-5.3-0.1-10.5,0.1-15.8c0.3-2.2-1-4.4-3-5.3c-3.9-2.1-7.7-4.4-11.4-6.8c-1.9-1.5-4.6-1.5-6.6-0.1c-7.1,4.1-14.3,7.9-21.4,11.9
				c-5.4,3-5.9,9.5-9.6,13.6c-0.3,0.3-0.1,1-0.1,1.5c-0.1,8.7-0.1,17.3-0.4,26c-0.3,2.1,0.8,4.1,2.7,5c4.1,2.4,8.2,4.8,12.2,7.3
				c1.5,1.1,3.6,1.1,5.2,0c9.6-5.4,19.3-10.8,29-16.1c1.7-0.8,2.8-2.6,2.6-4.5C339.9,288,340,282.4,340,276.7z M56.5,272.2h-0.4
				c0,5.3,0.2,10.5-0.1,15.8c-0.1,2.5,0.5,4.1,2.8,5.4c9.4,5.5,18.7,11.1,28,16.8c1.8,1.1,3.3,1.4,5.2,0.2c4.2-2.5,8.6-4.9,12.9-7.2
				c1.7-0.8,2.8-2.6,2.6-4.5c0-8.8,0.7-17.7,0.1-26.5c-0.4-5.2-4.6-9.4-7.1-14c-0.1-0.3-0.6-0.4-0.8-0.5
				c-7.6-4.6-15.2-9.1-22.7-13.7c-1.5-1.1-3.6-1.1-5.2,0c-4.1,2.4-8.3,4.7-12.5,6.9c-1.9,0.8-3.1,2.8-2.8,4.9
				C56.6,261.3,56.5,266.7,56.5,272.2z M234.1,312.4c-0.2,7.1-0.3,13.7-0.6,20.3c-0.1,2.3,1.3,3.3,3,4.3c15,9,30.1,18,45.1,27.1
				c1.1,0.4,2.2,0.8,3.4,1c0-6.3-0.1-12.1,0-17.9c0.2-12.4,0.4-24.9,0.6-37.3c0-1.7,0.3-3.4-1.6-4.5c-6-3.5-11.9-7.1-18-10.8
				c-3.9,3.7-7.5,7-10.9,10.6c-1.8,1.8-4.1,3.1-6.6,3.6C244,309.9,239.4,311.1,234.1,312.4L234.1,312.4z M289.9,61.7
				c-2.2,1.1-3.8,1.8-5.2,2.6c-11,6.1-22,12.2-33,18.3c-3.7,2.1-7.5,4-11.1,6.2c-1.1,0.6-2.5,1.8-2.5,2.8
				c-0.2,7.1-0.1,14.2-0.1,21.5c4.5,1.3,8.7,2.7,12.9,3.7c3.3,0.7,6.3,2.5,8.5,5.1c3,3.4,6.3,6.5,9.7,10c5.6-3.1,10.7-6.1,16-8.8
				c3-1.5,4-3.5,4-6.8c0.1-16.2,0.5-32.3,0.8-48.4C289.9,66.1,289.9,64.3,289.9,61.7z M94.5,228.7c-1.2-4.9-2.1-9.5-3.4-14
				c-0.9-2.9-0.8-6.1,0.2-9c1.4-4.5,2.6-9.1,3.9-13.8c-5.7-3.4-11-6.4-16.1-9.8c-2.5-1.6-4.4-1.5-7-0.1
				c-14.8,8.4-29.7,16.5-44.6,24.8c-1.2,0.7-2.3,1.6-3.4,2.4c1.9,1.2,3.3,2.1,4.8,3l37.6,22.6c2,1.3,4,2.5,6.2,3.6
				c1.2,0.5,2.5,0.6,3.7,0.1C82.4,235.5,88.2,232.1,94.5,228.7L94.5,228.7z M303.6,232.3c5.5,3.3,10.7,6.2,15.6,9.5
				c2.8,1.9,5,1.8,7.9,0.1c14.5-8.2,29.2-16.2,43.8-24.4c1.1-0.6,2.2-1.4,3.7-2.4c-1.4-1-2.4-1.8-3.5-2.5c-3.9-2.4-7.9-4.8-11.8-7.1
				c-10.5-6.3-21-12.7-31.5-19c-1.6-0.9-3.1-2.3-5.2-1.2c-6.1,3.4-12.1,6.7-18.3,10.2c1.3,5.1,2.4,9.8,3.6,14.3
				c0.8,2.6,0.7,5.4-0.1,8C306.3,222.5,305.1,227.1,303.6,232.3L303.6,232.3z M165.1,111.6c0-6.8-0.1-12.9,0.1-19
				c0.3-2.4-1-4.7-3.2-5.7c-14.8-8.8-29.5-17.7-44.3-26.5c-1-0.5-2-0.9-3.1-1.2c-0.2,0.4-0.4,0.9-0.5,1.3c-0.4,18.2-0.8,36.4-1,54.6
				c0,1.3,0.6,2.6,1.6,3.4c5.8,3.8,11.8,7.3,18,11c4-3.8,7.6-7.5,11.4-10.8c1.6-1.4,3.6-2.5,5.6-3.1
				C154.5,114.2,159.5,113.1,165.1,111.6z M288.6,308.1c-0.2,2.1-0.5,3.1-0.5,4c-0.3,17-0.5,34-0.8,51c-0.1,1,0,2,0.1,3
				c0.2,1.6,1.6,2.8,3.3,2.6c0.3,0,0.6-0.1,0.9-0.3c0.8-0.3,1.5-0.7,2.3-1.2c13.8-7.7,27.6-15.4,41.5-23c2.7-1.5,4-3.2,4-6.4
				c0.1-11.7,0.3-23.5,0.5-35.2c-0.1-1-0.2-1.9-0.4-2.9c-1.9,0.9-3.4,1.6-4.8,2.4c-8.5,4.7-17,9.3-25.4,14.1
				c-2.5,1.5-4.5,1.5-6.9-0.1C298.1,313.6,293.6,311.1,288.6,308.1L288.6,308.1z M106.9,305c-5.1,2.8-9.7,5.1-14,7.8
				c-2.5,1.5-4.5,1.4-7-0.1c-8.2-5.1-16.6-10.1-24.9-15c-1.4-0.8-2.9-1.5-4.7-2.5c-0.3,1-0.5,2-0.6,3c-0.2,12.1-0.2,24.2-0.5,36.2
				c-0.1,3,1.6,4.1,3.8,5.4c13.4,8,26.9,16.1,40.3,24.2c0.8,0.6,1.7,1.1,2.7,1.5c1.6,0.7,3.5-0.1,4.2-1.7c0.1-0.2,0.1-0.3,0.2-0.5
				c0.2-1.2,0.3-2.4,0.2-3.5c0.2-11.9,0.3-23.8,0.5-35.7C107,317.9,106.9,312,106.9,305z M55.9,129.6c-1.6,0.8-2.7,1.2-3.8,1.7
				c-9.8,5.4-19.6,11-29.5,16.3c-2.9,1.6-4,3.4-4,6.8c0,12.8-0.3,25.5-0.6,38.3c-0.1,3.4-0.2,6.8-0.2,10.2c0,3.9,2.1,5,5.7,3.3
				c0.5-0.2,0.9-0.5,1.4-0.7c14.7-8.2,29.4-16.4,44.1-24.5c1.1-0.6,2.1-1.4,3.7-2.5c-5.1-3.1-9.7-6-14.4-8.7c-1.9-0.9-3-2.9-2.7-4.9
				c0.2-4.8,0.3-9.5,0.3-14.3C56,143.8,55.9,137,55.9,129.6L55.9,129.6z M109.1,362.4c1.7-0.8,2.8-1.1,3.8-1.7
				c14.7-8.2,29.5-16.3,44.2-24.5c1.6-0.9,3.7-1.3,3.8-3.7c0-7,0-13.9,0-21.3c-4.6-1.4-9.1-2.8-13.6-4c-2.8-0.7-5.3-2.2-7.3-4.4
				c-3.2-3.5-6.7-6.7-10.3-10.3c-5.2,2.9-10.4,5.9-15.7,8.5c-3.1,1.5-4.4,3.5-4.3,7.1c0.1,11.9-0.3,23.8-0.5,35.7
				C109,349.8,109.1,355.7,109.1,362.4L109.1,362.4z M291.9,119.2l17.5-9.6l32.8,19.6c0.3-0.7,0.5-1.4,0.7-2.1
				c0.3-12.4,0.5-24.8,0.9-37.2c0.1-2.8-1.5-3.9-3.5-5.1c-13.7-8.2-27.4-16.5-41.1-24.7c-4.7-2.8-6.5-1.9-6.6,3.5
				c-0.2,9.2-0.5,18.4-0.7,27.5C291.8,100.2,291.9,109.2,291.9,119.2z M342.7,294.5c0.9-0.2,1.7-0.5,2.5-0.8
				c10.7-5.9,21.4-11.9,32.2-17.7c1.7-0.8,2.8-2.6,2.6-4.5c0.1-4.6,0.3-9.2,0.3-13.8c0.2-11.9,0.3-23.8,0.5-35.7
				c0-2.2-0.1-4.3-2.7-4.7c-1.2-0.2-2.6,0.6-3.7,1.3c-15,8.3-30.1,16.6-45.1,25c-1.1,0.7-2.2,1.5-3.2,2.3c4.9,3,9.1,5.7,13.5,8.2
				c2.6,1.4,3.4,3.2,3.3,6.1c-0.3,9.5-0.3,19-0.4,28.6C342.7,290.4,342.7,292.2,342.7,294.5z M327.7,182.6c0.5,0.9,0.5,1.3,0.8,1.4
				c15.7,9.5,31.4,19,47.2,28.4c3.1,1.9,5.2,0.6,5.3-3.2c0.4-16.7,0.6-33.3,1-50c0.2-2.1-0.9-4-2.8-4.9c-10.3-6-20.4-12.2-30.7-18.3
				c-1-0.4-2-0.8-3-1c-0.1,1.8-0.3,3.1-0.4,4.4c-0.1,9.9-0.4,19.7-0.4,29.6c0,2.9-0.8,4.7-3.5,6.1
				C336.8,177.4,332.4,180,327.7,182.6L327.7,182.6z M109.8,115.8c0.4-0.8,0.7-1.7,0.8-2.6c0.4-17.7,0.7-35.4,1-53.1
				c0.1-5-1.9-6-6.4-3.5C91,64.5,76.9,72.4,62.8,80.1c-2.4,1.3-3.3,3-3.3,5.7c-0.1,11.7-0.4,23.5-0.6,35.2c0.1,1,0.3,2,0.6,3
				c1.3-0.6,2.2-0.9,3.1-1.4c8.9-4.9,17.9-9.8,26.8-14.9c2.7-1.6,4.8-1.6,7.4,0.2C100.9,110.7,105.2,113.1,109.8,115.8z M199.3,46.7
				c-1.4-1-2.3-1.7-3.3-2.3c-9.8-5.9-19.6-11.7-29.3-17.7c-2.2-1.6-5.2-1.7-7.4-0.1c-13.8,7.8-27.6,15.4-41.5,23.1
				c-0.9,0.4-1.8,1-2.6,1.6c-1.3,1.1-1.4,2.9-0.4,4.2c0.1,0.1,0.2,0.2,0.3,0.3c0.8,0.7,1.6,1.3,2.5,1.7c14.4,8.7,28.9,17.3,43.3,26
				c1.3,0.7,2.6,1.3,4,1.8c0.2-5.7,0.6-10.8,0.5-15.8c0-3,1.1-4.6,3.7-6c8.6-4.6,17-9.3,25.5-14.1C196.1,48.7,197.5,47.8,199.3,46.7
				z M71.6,241.4c-0.6-0.6-1.2-1.2-1.9-1.7c-15.3-9.2-30.6-18.4-45.9-27.6c-4-2.4-6-1.2-6.1,3.5c-0.4,16.1-0.6,32.3-1,48.5
				c-0.1,2.9,1,4.6,3.5,6.1c9.8,5.7,19.6,11.7,29.3,17.5c1.3,0.7,2.6,1.3,4,1.8c0-2.2,0-3.7,0-5.2c0.2-9.7,0.5-19.4,0.6-29.1
				c0-3.1,1-5,3.8-6.4C62.5,246.6,66.8,244,71.6,241.4z M193.8,377.6c-2.2-1.4-3.6-2.4-5-3.2c-7.7-4.7-15.3-9.5-23.2-13.9
				c-3.8-2.1-5.3-4.6-4.9-8.9c0.4-4.5,0.1-9,0.1-13.7c-0.7,0-1.3,0.1-1.9,0.3c-16,8.8-31.9,17.6-47.8,26.5c-3.3,1.9-3.1,4.3,0.5,6.5
				c14.1,8.5,28.3,17,42.4,25.6c2.3,1.4,4,0.9,6.1-0.3c8.1-4.6,16.4-9.1,24.6-13.7C187.3,381.2,190.1,379.6,193.8,377.6z
				 M199.3,377.4c2,1.4,3.2,2.2,4.5,3c9.3,5.6,18.8,11.1,28,16.9c2.8,1.8,5,1.8,7.9,0.2c11.1-6.4,22.3-12.5,33.5-18.7
				c3-1.6,6-3.2,8.9-5c3.4-2,3.3-4.3,0-6.5c-0.3-0.2-0.6-0.4-0.9-0.5c-14.6-8.8-29.2-17.5-43.8-26.3c-1.4-0.7-2.7-1.3-4.2-1.8
				c0,5.9-0.1,11,0.1,16c0.1,2.7-0.7,4.5-3.3,5.6s-5.1,2.8-7.6,4.2L199.3,377.4z M238.2,86.6c0.7-0.1,1.4-0.3,2.1-0.5
				c15.6-8.7,31.3-17.3,46.9-26c4-2.2,4-4.7,0-7.1c-13.8-8.4-27.8-16.6-41.5-25.1c-2.9-1.8-4.9-1.1-7.4,0.3
				c-9.5,5.4-19,10.6-28.6,15.9c-1.3,0.7-2.5,1.6-4.5,2.8l33.1,20L238.2,86.6z M379.7,278.1c-0.8,0.1-1.5,0.3-2.3,0.6
				c-10.7,5.9-21.4,11.9-32.2,17.8c-1.9,0.9-3,2.9-2.8,4.9c-0.1,12.4-0.4,24.8-0.6,37.2c0,0.4,0.3,0.8,0.5,1.3
				c0.5-0.1,1.1-0.2,1.6-0.4c10.9-6,21.7-12.1,32.6-18c2.2-1.2,2.6-2.8,2.7-5c0.1-8.2,0.3-16.3,0.4-24.5
				C379.8,287.5,379.7,283,379.7,278.1z M52.1,335.1c0.3-0.7,0.4-1.5,0.5-2.2c0.3-12.2,0.4-24.5,0.8-36.8c0.1-2.7-1.3-3.9-3.3-5.1
				c-10-5.9-19.9-11.9-29.8-17.8c-1-0.5-2-0.9-3.1-1.3c-0.2,0.4-0.4,0.8-0.5,1.2c-0.2,12.6-0.4,25.2-0.8,37.8
				c-0.1,2.5,1.2,3.6,3,4.8c10.1,6,20.1,12.1,30.2,18.1C50.1,334.3,51.1,334.7,52.1,335.1L52.1,335.1z M381.3,152.7
				c0.3-0.6,0.5-1.1,0.6-1.7c0.3-12.6,0.5-25.2,0.9-37.7c0.1-2.5-1.3-3.6-3.1-4.7c-10.1-6-20.1-12.1-30.2-18.1c-1-0.4-2.1-0.8-3.1-1
				c-0.2,0.7-0.3,1.3-0.3,2c-0.2,12.2-0.4,24.5-0.7,36.7c-0.1,2.7,1.3,3.9,3.3,5.2c8.6,5.1,17.2,10.3,25.8,15.5
				C376.6,150,378.8,151.2,381.3,152.7z M219.7,231c-0.2,0.7-0.4,1.4-0.5,2.1c-0.6,11.2-0.7,11.5,9.2,16.9c5.2,2.8,6.9,6,6.6,12
				c-0.7,13.5-2.3,9.4,9,16.4c7.1,4.4,14.2,8.6,21.7,13.1l21-20.3L219.7,231z M19.5,146.2c0.7-0.2,1.4-0.4,2-0.7
				c10.7-5.9,21.4-11.9,32.1-17.7c1.9-0.9,3-2.8,2.8-4.9c0.1-11.7,0.4-23.4,0.6-35.2c-0.1-1.3-0.2-2.6-0.4-3.8c-2,1-3.5,1.7-4.9,2.5
				c-7.3,4-14.6,8-21.9,12.1c-3.3,1.8-7.7,3-9.3,5.8c-1.8,3-1,7.6-1,11.4C19.4,125.7,19.5,135.7,19.5,146.2z M193.2,238.7
				c-4.3,2.4-7.8,4.2-11,6.3c-0.7,0.5-1,2.1-1.1,3.2c-0.3,3.7-0.4,7.5-0.2,11.2c0.3,3.7-1.3,5.6-4.4,7.1c-2.8,1.3-5.3,3.2-8.1,4.4
				c-3.4,1.4-4.2,3.9-4.2,7.2c0,9-0.3,18-0.4,27c0,1.3,0.2,2.6,0.3,4.4l27.7,7.9L193.2,238.7z M159.6,399.6c1.4,1,2.4,1.9,3.6,2.6
				c9.8,5.9,19.6,11.6,29.2,17.7c2.6,1.6,4.4,1.5,7,0c9.9-5.6,19.9-11.1,29.9-16.6c1.2-0.8,2.4-1.6,3.5-2.5
				c-11.2-6.7-21.9-13-32.4-19.6c-2.9-1.8-5.1-1.6-7.9,0c-9.3,5.4-18.7,10.4-28.1,15.6C162.9,397.6,161.4,398.5,159.6,399.6z
				 M239.4,24.7c-1.7-1.2-2.7-2-3.8-2.7c-9.6-5.8-19.3-11.5-28.9-17.4c-2.2-1.6-5.2-1.7-7.4-0.2c-9.9,5.7-19.9,11.1-29.9,16.7
				c-1,0.6-2,1.3-3.5,2.3l36.4,21.9L239.4,24.7z M268.5,135c-10.1,5.6-19.7,11-29.4,16.3c-2,1.1-2.4,2.7-2.4,4.6
				c0,4.1-0.2,8.2-0.1,12.3c0.2,1.9-0.9,3.7-2.6,4.5c-3.6,1.9-7.2,3.9-10.7,6c-1.1,0.7-2.7,1.6-2.8,2.6c-0.6,4.2-0.6,8.4,0.1,12.6
				l68.3-37.8L268.5,135z M195.5,107c-10.1,1.8-19.1,4.4-28.8,6.9c0,11.5,0,22.5,0,33.5c0,1.7,0.9,3.3,2.5,4c3.7,2.1,7.3,4.4,11,6.5
				c1.6,0.8,2.5,2.4,2.3,4.1c-0.1,4.2-0.1,8.5-0.1,12.8c0,1.1,0,2.8,0.7,3.3c3.4,2.7,7.1,5,11.1,6.6L195.5,107z M133,132.7
				l-20.5,19.9c6.5,5.2,63,38.8,67.3,39.8c0-3.5,0-6.9,0-10.3c0-1.7-1-3.3-2.6-4.1c-3-1.7-5.8-3.7-8.8-5.2c-3.5-1.7-5.1-3.9-4.6-8
				c0.4-3.4,0-6.8,0.2-10.2c0.1-2.6-0.9-4-3.1-5.3c-5.6-3.2-11.1-6.6-16.7-10C140.6,137.3,137,135.1,133,132.7z M129.9,288.7
				c0.7-0.1,1.4-0.3,2-0.6c9.1-5,18.2-10.1,27.3-15c1.9-0.9,3-2.9,2.8-4.9c0-3.9,0.2-7.8,0.1-11.8c-0.2-2.3,1.1-4.4,3.2-5.3
				c3.5-1.8,6.9-3.7,10.3-5.7c1.1-0.7,2.8-1.7,2.8-2.6c0.3-3.9,1.2-8-0.3-12.4c-22.8,12.6-45.2,25-68,37.8L129.9,288.7z
				 M206.9,107.1c-0.1,26.3-1.3,51.8-1.1,78.2c3.4-1.8,5.8-3.3,8.4-4.5c2.5-0.9,4-3.4,3.7-6c-0.2-4.9-0.1-9.8-0.1-14.6
				c4.8-2.6,8.8-5.1,13.1-7.2c2.6-1.3,3.6-3.1,3.6-6c0-9.7,0.3-19.4,0.4-29.1c-0.1-1.1-0.2-2.1-0.5-3.2
				C225.5,112.2,216.7,109.4,206.9,107.1L206.9,107.1z M225.5,204.1c3.7,2.2,6.5,3.8,9.2,5.6c2,1.3,3.7,1.1,5.7-0.1
				c3.2-1.9,6.6-3.5,9.8-5.5c2.5-1.6,4.5-1.6,7,0c4.1,2.7,8.4,5.1,12.7,7.6c9.9-5.5,19.6-10.9,29.3-16.2c2.2-1.2,2.1-2.8,1.6-4.7
				c-1.6-6.2-3.1-12.5-4.7-18.8c-0.4-1.8-1-3.5-1.7-6.1L225.5,204.1z M106.3,162.8c-3.1,9.5-5.6,18.5-8,27.4
				c0.4,0.5,0.8,0.9,1.3,1.3c9,5.5,18.1,10.9,27.1,16.4c1.6,1.1,3.6,1.1,5.2,0c3.4-2,6.9-3.7,10.2-5.7c2.3-1.4,4.2-1.6,6.5,0
				c3.4,2.3,6.9,4.4,10.5,6.3c1.1,0.6,2.8,1,3.7,0.6c3.4-1.7,7-3.1,10.2-6.2L106.3,162.8z M104.4,257.8c9.8-4.2,65-35.3,67.9-38.3
				l-10.8-6.5l-16.5,8.9c-4.1-2.5-8.2-4.6-12-7.2c-2.8-1.9-5-1.9-7.9-0.2c-7.8,4.6-15.7,8.8-23.6,13.2c-1.3,0.7-2.6,1.6-4.1,2.6
				L104.4,257.8z M231.4,310.5c0.3-11.5,0.5-22.6,0.8-33.6c0.1-2.3-1.2-3.4-2.9-4.4c-4.4-2.6-8.7-5.2-13-7.8c0-5.4,0.1-10.5,0-15.6
				c0-1.3-0.3-3-1.1-3.6c-3.1-2.2-6.2-4.6-10.4-5.8c-0.8,26-1.3,51.6-1.3,77.8L231.4,310.5z M292.6,261.5l8-28
				c-10-6-19.4-11.7-28.9-17.4c-1.4-1-3.3-0.9-4.7,0.1c-3.5,2-7.2,3.9-10.7,6c-1.8,1.4-4.3,1.4-6.1,0c-3.4-2.2-6.9-4.3-10.5-6.3
				c-1.1-0.6-2.8-1.2-3.7-0.8c-3.7,1.6-7.3,3.7-10.6,6.1L292.6,261.5z M153.8,399.7c-2-1.3-3.3-2.2-4.7-3.1
				c-13-7.8-26-15.6-38.9-23.5c-1.9-1.1-3.3-3-4.9-4.4c-2.1-0.7-4.3-1.2-6.2-2.3c-12.9-7.6-25.7-15.4-38.5-23.1
				c-1.5-0.9-3.1-1.7-5.1-2.8c-0.2,3.2-0.2,5.6-0.5,7.9c-0.5,3.8,0.8,6.1,4.3,8.2c26.2,15.5,52.3,31.3,78.4,47
				c1.4,0.9,2.9,1.6,4.6,2.6L153.8,399.7z M384.8,158.7c-0.1,1.6-0.3,3.1-0.4,4.6c-0.3,15.2-0.5,30.3-0.9,45.5
				c-0.1,2.3-1,4.6-1.6,7.4c2,0.6,1.6,2.8,1.5,4.9c-0.3,14.5-0.5,28.9-0.8,43.4c0,2.5,0,5,0,8.4c3.2-1.7,5.5-3.2,8-4.2
				c3.3-1.4,4.2-3.6,4.3-7.2c0.3-28.8,0.9-57.6,1.3-86.3c0.2-11.4,0.1-11.4-10.1-16.4C385.6,158.7,385.2,158.7,384.8,158.7
				L384.8,158.7z M15.8,151.6c-2.9,1.6-5.2,3.1-7.7,4.1C5,157,4,159,4,162.4c-0.2,20.4-0.6,40.8-1,61.2c-0.2,10.5-0.5,21.1-0.6,31.6
				c0,1.6,0.1,3.9,1.1,4.6c3.2,2.3,6.4,4.9,10.6,5.8c0.1-1.7,0.3-3,0.3-4.4c0.3-15.3,0.5-30.6,0.9-45.9c0.1-2.2,0.8-4.4,1.3-6.6
				c-0.5-1.8-0.9-3.7-1.1-5.5c0-9.5,0.2-19.1,0.3-28.6C15.9,167.2,15.9,159.8,15.8,151.6L15.8,151.6z M294.2,55.9
				c1.6-1.3,3.4,0.5,5.3,1.6c13.1,7.9,26.3,15.8,39.4,23.6c1.4,0.8,2.8,1.5,4.8,2.6V70.1c-1.5-1-3-1.9-4.4-2.8l-48.6-29.2
				C280.6,32,270.6,26,260.5,20c-1.6-0.9-3.1-2.4-5.1-1.3c-3.2,1.8-6.4,3.6-10.2,5.7c2,1.4,3.4,2.3,4.8,3.2
				c13,7.8,26,15.6,38.9,23.5C290.6,52.2,292,53.8,294.2,55.9z M160.4,23c-3-1.8-5.3-3-7.3-4.5c-3-2.3-5.5-2-8.8-0.2
				C117.7,33.2,91,47.9,64.4,62.7c-0.9,0.4-1.8,0.9-2.6,1.6C61,65,60,66.1,59.9,67c-0.2,3.6-0.1,7.3-0.1,11.6c2.2-1,3.7-1.7,5.2-2.5
				c13.3-7.3,26.5-14.7,39.8-22c1.9-1,4.2-1.4,5.9-1.9c1.8-1.5,3.2-3.1,4.9-4.1c13.1-7.3,26.2-14.6,39.3-21.9
				C156.5,25.4,158,24.4,160.4,23z M288.2,372c-1.9,1.5-3.3,3.1-5.1,4.1c-13.2,7.4-26.5,14.7-39.7,22.1c-1.4,0.8-2.8,1.7-4.8,3
				l11.4,6.9c1.6-0.8,2.9-1.4,4.2-2.1c15.6-8.7,31.3-17.3,46.9-26c11.5-6.4,22.9-12.7,34.4-19.1c1.6-0.9,3.5-1.5,3.4-4
				c-0.1-3.5,0-7.1,0-11.4c-2.2,1.1-3.9,1.9-5.4,2.7c-13.1,7.3-26.2,14.6-39.3,21.8C292.3,371,290.2,371.4,288.2,372z M164.2,148.5
				v-34c-5.5,1.4-10.9,2.8-16.2,4.2c-0.5,0.2-0.9,0.4-1.3,0.8c-3.7,3.7-7.3,7.5-11.4,11.7L164.2,148.5z M161.4,274.8l-28.7,15.9
				c7,10.4,15.9,16.5,28.7,17V274.8z M234.6,275.6V309c12.4-0.3,21.7-5.7,28.8-16.1L234.6,275.6z M301.9,196.8l-29.8,16.5l29.2,17.6
				c1.7-5.9,3.2-11.1,4.6-16.3c0.2-0.7,0.2-1.3,0-2C304.7,207.7,303.5,202.8,301.9,196.8L301.9,196.8z M97.4,193.3
				c-1.7,5.9-3.2,11.2-4.6,16.6c-0.1,0.5-0.1,1,0.1,1.5c1.2,5.1,2.5,10.2,3.8,15.2c5.5-1.6,26.3-13.4,28.9-16.4L97.4,193.3z
				 M237.4,149.5l28.7-16c-6.8-10.9-16.1-16.2-28.7-17.2L237.4,149.5L237.4,149.5z M203.9,146.3h0.4c0-9.5,0-19,0-28.6
				c0-3.1,0.1-6.1,0.1-9.2c0-2.1-1.2-3.1-3.2-3.1s-3.3,0.7-3.4,2.9c0,0.7,0,1.4,0,2c-0.4,23.8-0.8,47.6-1.2,71.4
				c0,1.4-0.3,2.9,0.2,4c0.5,1.2,1.6,2,2.8,2.3c1,0,2.3-1.1,3-2.1c0.5-0.7,0.3-2,0.3-3C203.4,170.8,203.6,158.6,203.9,146.3
				L203.9,146.3z M292,264.5c-0.6-0.6-1.2-1.1-1.9-1.6c-21.6-13-43.2-26-64.8-39c-0.3-0.2-0.6-0.4-0.9-0.5c-2-0.9-4.1-0.3-4.8,1.4
				c-0.8,1.9,0,3.3,1.7,4.3c0.6,0.3,1.2,0.7,1.8,1.1c20.7,12.5,41.5,24.9,62.2,37.4c1.1,0.7,2.4,1.2,4,1.9L292,264.5z M110.3,155.1
				c-4,3.8-4,4.8,0.1,7.3c20.8,12.5,41.7,25.1,62.6,37.6c0.7,0.4,1.5,1.2,2.2,1.2c1.2-0.1,3.1-0.3,3.5-1.1c0.4-1.4,0.3-2.8-0.3-4.1
				c-0.4-0.9-1.9-1.4-2.9-2c-20.4-12.3-40.8-24.5-61.2-36.8C112.9,156.4,111.6,155.7,110.3,155.1z M108.4,266.1
				c1-0.5,1.8-0.8,2.5-1.2l64.8-35.9c0.6-0.3,1.2-0.7,1.8-1c1.4-0.7,2.1-2.4,1.4-3.8c0-0.1-0.1-0.1-0.1-0.2c-0.6-1.6-2.4-2.4-4-1.8
				c-0.1,0-0.2,0.1-0.3,0.1c-0.8,0.3-1.5,0.7-2.3,1.2c-21.1,11.7-42.3,23.4-63.4,35.2C104.5,261,104.5,261.9,108.4,266.1
				L108.4,266.1z M293.5,163.5c-1.6-5.6-2.3-5.9-6.6-3.6c-21.1,11.7-42.3,23.4-63.4,35.1c-0.9,0.5-2.2,0.9-2.5,1.6
				c-0.6,1.3-0.7,2.8-0.3,4.1c0.3,0.8,2.2,1.2,3.4,1.1s2.1-1,3.2-1.6l61.6-34.2C290.3,165.4,291.7,164.5,293.5,163.5z M200.4,318.3
				c0.2-0.8,0.3-1.5,0.4-2.3c0.4-24.8,0.9-49.6,1.3-74.4c0-0.9,0-1.7-0.1-2.6c0.1-1.6-1.1-3-2.7-3.1h-0.1c-1.7-0.2-3.3,1-3.5,2.7
				c0,0.1,0,0.2,0,0.3c-0.1,0.8-0.1,1.7-0.1,2.6c-0.4,23.6-0.8,47.2-1.2,70.9c0,1.8,0,3.7,0,6L200.4,318.3z M235,91.8l-23,12.8
				l0.2,1.1c7.4,2.2,14.6,4.6,22.8,6.3V91.8z M128,290.4c-3.3-3.4-5.9-6.3-8.7-9s-4.8-6-8.9-8c0,9.1-0.9,17.6-0.3,26.9L128,290.4z
				 M167.7,90.5c0.1,7.4-0.9,13.6,0,20.6l22.9-5.8l0.1-1.1L167.7,90.5z M99.6,254.8l1.3-0.7l-5.8-22.9l-18.1,10L99.6,254.8z
				 M297.5,168.5c2.3,8.8,3.8,16.4,6.4,24.4c6.1-3.4,11.8-6.2,17.7-10.1L297.5,168.5z M270.8,133.8c3.3,3.5,6,6.3,8.8,9.1
				s5,5.8,9,8.5c0-9.6,0.4-18,0.1-27.5L270.8,133.8z M296.4,257.7l1.1,0.6l23.2-12.9l-17.8-10.6L296.4,257.7z M231.2,313.2L208,319
				c4.3,4.1,19.3,12.9,23.1,13.6L231.2,313.2z M95.9,189.5l6.6-22.9l-0.9-0.8l-23.4,13L95.9,189.5z M112.9,120.6
				c-0.1,9.8-0.3,18.3-0.2,26.8l1.1,0.4l17-16.5L112.9,120.6z M285.8,303.5v-27.8L268,292.9L285.8,303.5z M163.8,311.9
				c0,7-0.5,13.3-0.1,20.5l23.2-12.9l-0.2-1.1L163.8,311.9z M234.1,154.2c-4.5,2.5-8.3,4.5-11.9,6.6c-0.9,0.5-1.5,1.3-1.7,2.3
				c-0.2,4.5-0.7,9,0.2,14c4.2-2.3,8-4.3,11.6-6.5c1-0.6,1.6-1.7,1.7-2.8C234.2,163.7,234.1,159.4,234.1,154.2L234.1,154.2z
				 M166.8,153c0,2.8-0.2,5.6-0.5,8.4c-1,5.5,1,9,6.2,11c2.4,0.9,4.2,3.3,7.4,3.2v-14.8L166.8,153z M131.8,210.9l13.3,8
				c4.6-2.4,9.1-4.5,13.5-7.8c-4.1-2.5-7.5-4.5-11-6.7c-1.2-0.9-2.9-1-4.2-0.1C139.9,206.4,136.3,208.4,131.8,210.9L131.8,210.9z
				 M239.9,212.9l13.6,8.1c4.3-2.9,8.9-4.5,13.2-8c-4.2-2.5-7.8-4.8-11.5-6.8c-1.1-0.5-2.2-0.5-3.3,0
				C248.1,208.1,244.5,210.3,239.9,212.9L239.9,212.9z M232.5,271.4c0-5.4,0.1-9.4,0-13.5c0-0.9-0.2-2.3-0.9-2.7
				c-4-2.9-8.3-5.4-12.7-7.5c0,5-0.1,9.1,0.1,13.1c0.1,1.3,0.7,2.5,1.6,3.3C224,266.5,227.7,268.6,232.5,271.4L232.5,271.4z
				 M164.8,270c4.6-2.6,8.4-4.7,12.2-6.9c0.6-0.3,1-0.9,1.1-1.5c0.2-4.6,0.8-9.2-0.3-14.4c-4,2.2-7.6,4.1-11.1,6.2
				c-1,0.8-1.7,1.9-1.9,3.2C164.7,260.7,164.8,264.7,164.8,270z M216.5,242.9c0.1-4.7,0.4-8.5,0.2-12.3c-0.1-2.2-2.4-3.4-4.5-2.4
				c-2,0.9-4,1.9-5.8,3.2c-2.4,1.6-2.5,4,0.1,5.7C209.5,239,212.6,240.6,216.5,242.9L216.5,242.9z M234.8,212.7
				c-4.1-2.5-7.1-4.4-10.2-6.1c-2.4-1.3-4.4-0.4-4.8,2.4c-0.3,2.3-0.4,4.7-0.1,7.1c0,1.6,1.3,2.9,2.9,2.9c0.5,0,1.1-0.2,1.5-0.4
				C227.5,217,230.6,215,234.8,212.7L234.8,212.7z M182.6,181.4c-0.2,2-0.4,3.1-0.4,4.3c-0.1,2.5-0.2,5.1,0,7.6s2,3.8,4.1,2.9
				c2.3-1,4.5-2.2,6.6-3.7c1.3-0.9,1.6-2.7,0.7-4.1c-0.2-0.3-0.5-0.5-0.8-0.7C189.7,185.5,186.4,183.7,182.6,181.4L182.6,181.4z
				 M217.3,182c-3.8,2.1-7.1,3.7-10.2,5.6c-2.1,1.4-2.1,3.9,0,5.4c1.8,1.3,3.7,2.4,5.6,3.4c2.2,1,4.3,0.1,4.5-2.3
				C217.5,190.4,217.3,186.6,217.3,182L217.3,182z M164.2,211.4c3.9,2.4,7,4.5,10.2,6.2c2.1,1.1,4.3,0.1,4.6-2.2
				c0.3-2.5,0.3-5.1,0.1-7.6c-0.1-1.6-1.5-2.7-3-2.6c-0.4,0-0.8,0.1-1.1,0.3C171.5,207.2,168.2,209.2,164.2,211.4L164.2,211.4z
				 M181.3,242.3c4.1-2.2,7.4-3.9,10.4-5.8c2.3-1.4,2.2-3.7,0-5.3c-1.6-1.2-3.4-2.2-5.2-3.1c-2.9-1.5-5-0.4-5.2,2.8
				S181.3,237.6,181.3,242.3L181.3,242.3z M202.4,225.1L202.4,225.1c0.1-0.7,0.1-1.4,0.1-2c0.2-2.3-1-3.7-3.1-3.9s-3.3,1.4-3.4,3.6
				c-0.1,1.9-0.1,3.7-0.1,5.6c0,2.2,1.2,3.7,3.4,3.6c1.8,0,3.2-1.4,3.2-3.2c0-0.1,0-0.1,0-0.2C202.5,227.5,202.4,226.3,202.4,225.1
				L202.4,225.1z M216.9,220.6c-0.1-0.3,0-1-0.3-1.2c-2.7-1.9-5.5-3.6-8.4-5.2c-0.6-0.3-2.4,1.1-3,2.1c-0.3,1.1-0.1,2.3,0.6,3.1
				c2.3,1.7,4.7,3.2,7.3,4.4C214.9,224.6,216.9,222.8,216.9,220.6L216.9,220.6z M193.5,216.8c0-1.7-1.4-3-3.1-2.9
				c-0.5,0-0.9,0.1-1.4,0.4c-2.2,0.9-4.3,2.1-6.2,3.5c-1.4,0.9-1.8,2.7-1,4.1c0.2,0.4,0.6,0.7,1,1c2.6,1.8,4.5-0.5,6.4-1.5
				S193.7,219.8,193.5,216.8L193.5,216.8z M208.4,210.9c2.8-1.5,5.5-3.2,8.1-5c0.7-0.5,0.7-2.8,0.1-3.6c-0.9-1-2.1-1.4-3.4-1.2
				c-2.4,0.9-4.6,2.1-6.6,3.7c-0.9,0.9-1.3,2.3-1,3.5C205.8,209.3,207.3,209.9,208.4,210.9L208.4,210.9z M193.7,206.5
				c-0.2-0.4-0.3-1.5-0.8-1.9c-2.2-1.6-4.5-3-6.9-4.1c-1.2-0.2-2.5,0.2-3.4,1.2c-0.6,0.9-0.6,3.1,0,3.6c2.4,1.9,5,3.4,7.8,4.5
				C192.1,210.4,193.6,209.1,193.7,206.5L193.7,206.5z M196.6,198.5h-0.1c0,1.2,0,2.4,0,3.5c-0.1,1.4,1,2.7,2.4,2.8
				c0.1,0,0.3,0,0.4,0c1.2-0.1,3-1.4,3.2-2.4c0.4-2.5,0.4-5,0.2-7.5c0.1-1.4-1-2.6-2.4-2.6c-0.2,0-0.4,0-0.6,0
				c-1.3,0.5-2.4,1.4-3,2.7C196.2,196,196.6,197.4,196.6,198.5L196.6,198.5z M196.8,216.5h5.2l2.5-4.3l-2.5-4.6h-5l-2.7,4.4
				L196.8,216.5z M181.9,215.4l5.8-3.6l-5.8-3.1V215.4z M205.1,229l5.9-3.2l-5.9-3.4V229z M216.9,209l-5.9,3.4l5.9,3.3V209z
				 M193.2,228.7v-6.5l-5.9,3.4L193.2,228.7z M205.7,195.4l-0.3,6.8l6-3.3L205.7,195.4z M187.9,198.3l5.7,3.4v-6.4L187.9,198.3z"/>
		</g>
	</g>
</g>
<g id="center">
	<polyline id="outside_x5F__hexes" class="st3" points="202,207.6 206.9,107.1 294.7,57.2 384.2,109.1 381.5,212.3 292.6,260.8 
		204.5,212.2 293.9,164.4 382,218.8 380.1,319.8 288.8,371 202,318.5 202.1,216.7 286.7,271.2 285.7,372.4 199,422.9 106.1,369.5 	
		"/>
	<polyline id="outside_x5F_hexesOP" class="st3" points="106.1,369.5 108.2,268.4 196.8,216.5 193.1,318.4 102.8,366.8 14,314 
		17,211.6 106,161.2 194.3,212 104,259.6 15.9,205.8 18.4,102.3 110.7,53.9 196.6,105.7 197,207.6 110.7,153.4 112.8,52.2 
		202.8,1.4 291.4,54.6 290.4,156.6 202,207.6 	"/>
	<polyline id="outside_x5F_hexes2" class="st3" points="199.6,190.2 234.9,170 236.8,67.8 148.8,15.1 59.4,64.7 57,166.7 
		144.6,220.1 181.4,201.4 181.1,160.2 93.2,107.7 3.8,157.4 1.4,258.1 89.5,312.5 179.1,262.9 181,221.4 145.9,202.2 55.9,252 
		53.9,354.1 141.8,407.6 231.8,357.5 234,255.2 199.1,233.1 163.6,254.2 162.3,355.8 	"/>
	<polyline id="outside_x5F_hexes2OP" class="st3" points="162.3,355.8 249.7,409.3 339.8,359.1 341.5,257.5 254.1,204.1 217.4,222 
		217.8,263.6 305.2,316.2 395.7,266.9 397.5,165 309.1,111.2 219.1,161.3 217.4,200.9 253.2,222 344.1,172.4 345.5,69.2 256.9,15.9 
		166.9,66.9 165.3,167.8 199.6,190.2 	"/>
	<polyline id="inside_x5F_hex" class="st3" points="202,104.2 254.8,119.7 294.5,159.4 307.3,213.3 292.2,268.5 253.1,305.3 
		198.4,319.7 	"/>
	<polyline id="inside_x5F_hexOP" class="st3" points="198.4,319.7 144.4,304.9 104.6,264.6 91.4,210.2 107.2,157.1 146.9,118.1 
		202,104.2 	"/>
	<polyline id="inside_x5F_hex2" class="st3" points="181.4,201.5 181,221.4 199.1,233.1 217.4,222 217.4,200.9 199.6,190.2 
		181.4,201.4 	"/>
	<polyline class="st3" points="202.1,216.7 196.8,216.5 194.3,212 197,207.6 202,207.6 204.5,212.2 202.1,216.7 	"/>
</g>
</svg>
