<svg xmlns="http://www.w3.org/2000/svg" viewBox="0 0 474.42 473.87"><defs><style>.cls-1{fill:none;stroke:#485c5a;stroke-miterlimit:10;stroke-width:4px;}</style></defs><title>spirals_redraw-halved</title><g id="Layer_2" data-name="Layer 2"><g id="redraw"><polyline id="spiral1" class="cls-1" points="190.37 116.36 355.13 184.59 357.19 190.38 289.45 354.23 283.1 357.03 118.88 289.1 116.08 283.13 185.31 117.97 303.06 68.06 309.23 70.94 405.15 303.28 403.1 308.88 170.94 404.62 164.6 402.19 69.05 170.04 71.29 165 303.06 68.06 422.94 117.64 452.85 189.78 355.89 422.59 284.62 452.47 51.03 355.68 21.15 283.31 118.1 50.65 189.69 21.09 303.06 68.06"/><polyline id="spiral2" class="cls-1" points="190.25 357.08 355.13 288.94 357.62 283.14 289.47 118.88 283.05 115.98 119 183.92 116.72 189.51 184.45 354.6 303.14 404.52 309.77 402.03 405.05 170.04 402.56 164.66 170.58 68.55 164.36 71.04 69.08 302.61 71.15 308.82 303.14 404.52 422.65 356.05 452.85 283.76 356.58 51.15 283.46 21.09 51.48 117.43 21.73 189.46 117.5 421.85 190.03 452.47 303.14 404.52"/><polyline id="outside1" class="cls-1" points="237 1.85 403.07 70.58 472.25 236.78 403.18 403.2 237 472.02"/><polyline id="outside2" class="cls-1" points="237 472.02 70.57 402.76 2.16 236.78 70.68 70.58 237 1.85"/></g></g></svg>