<svg xmlns="http://www.w3.org/2000/svg" viewBox="0 0 190.31 189.71"><defs><style>.cls-1{fill:none;stroke:#485c5a;stroke-miterlimit:10;stroke-width:4px;}</style></defs><title>spiral_redraw-halved</title><g id="Layer_2" data-name="Layer 2"><g id="redraw"><polyline id="spiral1" class="cls-1" points="76.62 47.15 141.81 74.15 142.62 76.44 115.82 141.26 113.31 142.37 48.34 115.49 47.23 113.13 74.62 47.79 121.2 28.04 123.64 29.18 161.59 121.1 160.78 123.32 68.94 161.19 66.43 160.23 28.63 68.39 29.51 66.39 121.2 28.04 168.63 47.66 180.46 76.2 142.11 168.3 113.91 180.13 21.5 141.83 9.67 113.2 48.03 21.16 76.35 9.46 121.2 28.04"/><polyline id="spiral2" class="cls-1" points="76.58 142.39 141.8 115.43 142.79 113.13 115.83 48.15 113.29 47 48.39 73.88 47.48 76.09 74.28 141.4 121.24 161.15 123.86 160.17 161.55 68.39 160.57 66.26 68.79 28.24 66.33 29.22 28.64 120.83 29.46 123.29 121.24 161.15 168.52 141.98 180.46 113.38 142.38 21.35 113.45 9.46 21.67 47.58 9.9 76.07 47.79 168.01 76.49 180.13 121.24 161.15"/><polyline id="outside1" class="cls-1" points="95.07 1.85 160.77 29.04 188.14 94.79 160.81 160.63 95.07 187.86"/><polyline id="outside2" class="cls-1" points="95.07 187.86 29.23 160.46 2.16 94.79 29.27 29.04 95.07 1.85"/></g></g></svg>