<svg xmlns="http://www.w3.org/2000/svg" viewBox="0 0 465.79 402.81"><defs><style>.cls-1{fill:none;stroke:#485c5a;stroke-miterlimit:10;stroke-width:4px;}</style></defs><title>triangles_redraw-halved</title><g id="Layer_2" data-name="Layer 2"><g id="redraw"><polyline id="insideSpiral" class="cls-1" points="118.33 199.97 60.34 297.62 118.53 398.81 347.74 398.92 385.18 331.02 290.85 166.94 176.7 166.94 118.7 264.95 175.59 364.05 290.12 364.05 327.92 299.45 271.4 200.1 195.78 200.1 157.98 266.05 195.42 331.75 271.03 331.75 290.85 299.08 253.04 233.01 214.13 233.01 195.42 265.92 213.77 299.08 252.43 299.08 271.43 265.54"/><line id="centerOut1" class="cls-1" x1="233.24" y1="266" x2="175.59" y2="364.05"/><line id="centerOut2" class="cls-1" x1="233.24" y1="266" x2="290.12" y2="364.05"/><line id="centerOut3" class="cls-1" x1="233.24" y1="266" x2="290.85" y2="166.94"/><line id="centerOut4" class="cls-1" x1="233.24" y1="266" x2="176.7" y2="166.94"/><line id="hash1" class="cls-1" x1="290.85" y1="99.6" x2="118.53" y2="398.8"/><line id="hash2" class="cls-1" x1="175.59" y1="99.6" x2="347.74" y2="398.92"/><line id="hash3" class="cls-1" x1="60.34" y1="297.62" x2="405.16" y2="299.42"/><line id="hash4" class="cls-1" x1="175.59" y1="99.6" x2="290.85" y2="99.6"/><line id="hash5" class="cls-1" x1="118.7" y1="264.95" x2="348.02" y2="266"/><polyline id="invertedTri1" class="cls-1" points="347.7 199.97 232.91 398.81 118.33 199.97 347.7 199.97"/><polyline id="ousideTri1" class="cls-1" points="233.24 134.83 347.74 332.61 118.53 332.61 233.24 134.83"/><polyline id="ousideTri2" class="cls-1" points="233.24 67.24 61.03 365.21 405.16 364.95 233.24 67.24"/><polyline class="cls-1" points="233.24 1 3.46 398.81 462.33 398.92 233.24 1"/><polyline id="invertedTri2" class="cls-1" points="232.91 332.61 176.23 233.11 290.5 233.72 232.91 332.61"/></g></g></svg>