<?xml version="1.0" encoding="utf-8"?>
<!-- Generator: Adobe Illustrator 21.1.0, SVG Export Plug-In . SVG Version: 6.00 Build 0)  -->
<svg version="1.1" id="Layer_1" xmlns="http://www.w3.org/2000/svg" xmlns:xlink="http://www.w3.org/1999/xlink" x="0px" y="0px"
	 viewBox="0 0 469 408.1" style="enable-background:new 0 0 469 408.1;" xml:space="preserve">
<style type="text/css">
	.st0{fill:#485C5A;}
</style>
<title>triangles</title>
<g id="Layer_2">
	<g id="Shapes">
		<path class="st0" d="M173.6,108.1c-1.6-2.4-1.2-4.8,0.4-7.1c0.9-1.3,2.1-2.4,3.7-2.3c1.8,0.1,2.2-1.1,2.9-2.3l20.1-34.5
			c9.8-16.9,19.7-33.9,29.5-50.9c0.9-1.6,1.8-2.9,0.7-5c-0.9-1.8,0.1-4,1.9-5.1c1.7-1.2,4-1.1,5.6,0.1c1.6,1.3,2.3,3.4,1.6,5.3
			c-0.2,0.6-0.5,1.2-0.8,2L291,98.8c3-0.2,5.6,1.7,6.4,4.5c0.4,1,0.5,2.2,0.1,3.3c-0.9,1.8-0.2,3,0.6,4.4
			c7.2,12.4,14.4,24.9,21.5,37.4c9,15.7,18.1,31.5,27.1,47.3c0.8,1.4,1.6,2.5,3.5,2.8c3,0.4,5.4,4.8,4.7,7.8
			c-0.2,0.8-0.5,1.5-0.8,2.3c1.1,1.9,2.2,3.9,3.3,5.9c15.5,27.1,31.1,54.1,46.6,81.2c0.6,1.5,2,2.5,3.6,2.7c3.2,0.6,5.3,4.7,4.2,7.9
			c-0.2,0.5-0.4,1-0.7,1.7c0.4,0.8,0.9,1.6,1.3,2.4c16.3,28.5,32.7,56.9,49,85.4c0.9,1.5,1.6,2.8,3.7,3c2.1,0.3,3.6,2,3.7,4.1
			c0.2,2.1-1,4.2-3,5c-1.9,0.9-4.2,0.3-5.4-1.4c-0.8-1.2-2.2-1.8-3.6-1.6c-11.9,0-23.8,0-35.7,0c-9.6,0-19.2,0-28.8-0.1
			c-11.7,0-23.4-0.1-35.1-0.1c-1.4-0.2-2.8,0.5-3.6,1.7c-1.5,2.3-7.1,2.6-8.9,0c-0.8-1.1-2.1-1.7-3.4-1.6c-10.3,0-20.5,0-30.8,0
			c-7.3,0-14.6-0.1-22-0.1c-12.5,0-24.9,0-37.3,0c-3.6,0-7.2-0.1-10.9-0.1c-1.3,2.4-4,3.8-6.7,3.4c-1.8-0.2-3.4-0.6-4.4-2.2
			c-0.6-0.9-1.6-1.4-2.6-1.2c-10.5,0-21.1,0-31.6,0c-15.6,0-31.2-0.1-46.7-0.1c-7.7,0-15.4,0-23.2,0.1c-1.1,2.5-3.2,3.4-5.8,3.3
			c-1.7,0.1-3.3-0.6-4.3-1.9c-0.7-1.1-2-1.7-3.4-1.6c-5.6,0-11.2-0.1-16.8-0.1c-9.9,0-19.8,0-29.7,0l-37.1-0.1
			c-5.4,0-10.8,0-16.3-0.1c-1.3-0.2-2.6,0.4-3.4,1.5c-1.2,1.8-3.6,2.4-5.6,1.5c-2-0.8-3.2-2.9-2.9-5c0.1-2.3,1.9-4.2,4.2-4.4
			c1.1-0.1,2.1-0.7,2.7-1.7c17-29.4,34.1-58.8,51.2-88.1c0.1-0.2,0.2-0.3,0.3-0.7c-1.6-2.2-1.4-5.2,0.4-7.3c0.9-1.2,2-2.3,3.5-2.2
			c1.7,0,2.3-1,3-2.2c8.6-14.9,17.2-29.8,25.8-44.6c7.8-13.4,15.6-26.8,23.4-40.2c0.8-1.4,1.3-2.6,0.6-4.5c-1.2-3.1,1.6-7.6,4.9-8.1
			c1.2-0.1,2.3-0.8,2.8-1.9c16.7-28.8,33.4-57.6,50.1-86.3C173.1,109.1,173.3,108.7,173.6,108.1z M352.9,398.3
			c1.1,2.5,2.7,3.3,5.2,3.2c13-0.1,26,0,39.1,0l60.2,0.2c3,0,3.6-1,2.2-3.6c-0.2-0.4-0.5-0.8-0.7-1.2l-33.5-58.4
			c-5.2-9-10.4-18-15.5-27c-0.9-1.5-1.8-2.6-3.7-2.5c-0.5,0-0.9,0-1.4-0.1l-15.9,27.4c5.1,8.9,10.1,17.5,15,26.2
			c0.8,1.5,1.7,2.5,3.6,2.7c2,0.3,3.5,1.9,3.6,3.9c0.3,2.1-0.8,4.1-2.6,5c-2,1-4.5,0.4-5.9-1.4c-0.7-1-1.9-1.5-3.1-1.4
			c-9.6,0-19.2,0-28.8-0.1c-1.2-0.2-2.4,0.5-3,1.6C362.9,381.2,357.9,389.7,352.9,398.3L352.9,398.3z M116.3,398
			c-5.1-8.9-10.1-17.6-15.1-26.4c-0.6-1.1-1.5-1.2-2.6-1.2c-9.7,0-19.4,0-29.1-0.1c-1.1-0.1-2.2,0.4-2.9,1.3
			c-1.2,1.8-3.5,2.5-5.5,1.7c-2-0.8-3.3-2.8-3-5c0.1-2.2,1.8-4,4-4.2c1.3-0.1,2.5-1,3-2.2c4.7-8.2,9.4-16.3,14.2-24.4
			c0.9-1.3,0.9-3.1-0.1-4.4C75,326.2,71,319,66.9,312c-0.8-1.3-1.5-2.6-2.3-3.9l-3.7,0.5c-0.6,1-1.1,1.9-1.6,2.8l-28.5,49.1
			c-7,12-13.9,24-21,36c-2,3.3-0.8,4.7,2.6,4.3c0.7,0,1.3,0,2,0c14.1,0,28.1,0,42.2,0c18.4,0,36.9,0.1,55.3,0.2
			c1.3,0,2.4-0.2,3.1-1.5C115.3,398.9,115.8,398.5,116.3,398z M288.5,100.2c-0.5-0.8-0.9-1.7-1.4-2.5
			c-16.3-28.5-32.6-56.9-48.9-85.4c-1.9-3.3-3.4-3.5-5.4-0.1c-13,22.6-26.1,45.1-39.2,67.6c-3.5,6.1-7,12.2-10.6,18.2
			c-0.7,1.2-1.1,2.3-0.2,3.7c0.3,0.5,0.4,1,0.6,1.5c0.3,0.1,0.6,0.1,0.9,0.2c9.5,0,19,0,28.5,0.1c1.5,0.1,3-0.7,3.6-2.1
			c4.3-7.5,8.6-15,13-22.5c0.8-1.3,1.5-2.6,2.2-3.9c-0.2-0.5-0.4-1-0.6-1.4c-0.9-2.4-0.4-4.5,1.5-5.8c1.7-1.2,3.9-1.2,5.6-0.1
			c1.9,1.3,2.6,3.7,1.6,5.8c-0.5,1-0.4,2.2,0.2,3.2c4.9,8.4,9.7,16.8,14.5,25.2c0.6,1.2,1.9,1.9,3.2,1.7c5.7-0.1,11.4,0,17.1,0
			c4.1,0,8.3,0,12.4-0.1L288.5,100.2z M179.1,109.9c-2.4-0.8-3.2,0.7-4.1,2.2c-13.9,24-27.9,48-41.8,72l-8.7,15l1.4,2.9l31.7,0.1
			c0.2-0.3,0.5-0.5,0.7-0.8c4.9-8.5,9.8-16.9,14.8-25.4c0.5-0.9,0.5-2,0.1-2.9c-1.1-2.9,0.4-6,3.2-7.1c0.4-0.1,0.8-0.3,1.2-0.3
			c1.1-0.1,2.1-0.8,2.6-1.8c4.6-8,9.2-16,13.9-23.9c0.8-1.2,0.8-2.7,0-3.9c-3.6-6.1-7.1-12.4-10.7-18.6L179.1,109.9z M401.3,301.9
			c2-1.7,1.2-3.1,0.3-4.7c-16.3-28.3-32.5-56.6-48.7-84.9c-1.1-1.9-2.2-3-4.5-2.5c-0.1,0.1-0.3,0.2-0.4,0.4
			c-5,8.6-10.1,17.2-15.1,25.9c-0.5,0.8-0.5,1.9,0,2.6c5,8.7,10,17.5,15,26.2c6.1,0.6,7.6,5.2,5.5,9.6c4.9,8.6,9.9,17.2,14.9,25.9
			c0.5,1,1.7,1.6,2.8,1.4C381.2,301.8,391.2,301.9,401.3,301.9z M137.6,236.8l-15.8-27.6c-2.1-0.2-3.3,0.1-4.4,1.9
			c-16.5,28.7-33.2,57.3-49.8,85.8c-0.9,1.6-0.9,2.8,0.6,4.1c10.1,0,20.4,0,30.6,0.1c1.1,0,2-0.6,2.4-1.6
			c4.7-8.1,9.4-16.3,14.2-24.4c0.6-0.9,0.7-2,0.2-2.9c-1.2-2.8,0.1-6.1,2.9-7.3c0.5-0.2,1-0.3,1.5-0.4c1-0.1,1.9-0.7,2.4-1.6
			C127.5,254.3,132.5,245.7,137.6,236.8L137.6,236.8z M230.4,398.6c-5.1-8.9-10.2-17.7-15.1-26.4c-0.9-1.5-2.1-1.4-3.4-1.4
			c-4,0-8,0-12,0h-17.2c-0.3,0.3-0.4,0.5-0.5,0.6c-2.9,3.6-6.6,3.8-9.6,0.3c-0.6-0.7-1.5-1.1-2.5-0.9c-5.7,0-11.4-0.1-17.1-0.1
			c-4.3,0-8.5,0-12.9,0l-16.3,28.1l1.5,2.2l103.1,0.3L230.4,398.6z M240.4,401.2c6,0,12-0.1,18,0c13.2,0,26.4,0,39.6,0.1
			c12.3,0.1,24.5,0.1,36.8,0.2c2.4,0,4.8,0.1,7.1,0c2.7-0.1,3.6-1.6,2.3-3.9c-4.7-8.3-9.5-16.5-14.2-24.8c-0.6-1.2-1.8-1.9-3.2-1.8
			c-2.9,0.1-5.9,0-8.8,0h-20.7l-0.6,0.8c-2.8,3.5-6.6,3.6-9.4,0.3c-1-1.2-2.1-1.1-3.3-1.1c-6.3,0-12.5,0-18.8,0c-3.5,0-7,0-10.6,0.1
			l-16,27.6L240.4,401.2z M291.3,110.2c-5.1,8.7-10.2,17.6-15.4,26.5c-0.7,1.2-0.3,2.1,0.3,3.1c4.6,8,9.2,16,13.8,24
			c0.6,1.1,1.6,1.8,2.9,1.9c3,0.5,5,3.4,4.5,6.4c-0.1,0.3-0.1,0.7-0.3,1c-0.5,1.2-0.3,2.6,0.4,3.7c4.5,7.7,9,15.5,13.3,23.3
			c0.7,1.6,2.3,2.6,4,2.4c9.1-0.1,18.3,0,27.4,0c2.7,0,3.9-2,2.6-4.3c-1.8-3.2-3.7-6.4-5.5-9.7c-14.6-25.4-29.2-50.8-43.7-76.3
			C294.5,110.7,293.6,109.4,291.3,110.2L291.3,110.2z M314.8,337.7c0.1,0.4,0.1,0.7,0.2,1.1c5.3,9.2,10.6,18.5,15.8,27.8
			c0.8,1.5,2,1.5,3.3,1.5c10.1,0,20.2,0,30.2,0.1c1.6,0.2,3.1-0.8,3.8-2.2c4.2-7.4,8.5-14.6,12.7-22c1.5-2.5,2.9-5.1,4.4-7.6
			c-0.2-0.5-0.3-0.8-0.5-1.1c-5.3-9.2-10.6-18.5-15.9-27.7c-0.6-1.2-1.9-1.9-3.2-1.7c-10,0-20-0.1-30-0.1c-0.9,0.1-1.8,0.2-2.6,0.3
			c4.8,8.4,9.4,16.5,14.1,24.5c0.5,0.6,1.3,1,2.1,1.1c2.5,0.6,3.9,1.9,4.2,4c0.3,2.1-0.8,4.2-2.8,5.1c-2,0.9-4.3,0.3-5.6-1.5
			c-0.7-1-1.9-1.6-3.1-1.5c-5.9,0-11.8,0-17.7,0C321.3,337.7,318.2,337.8,314.8,337.7L314.8,337.7z M253.5,166.8
			c0.3-0.2,0.5-0.3,0.6-0.4c5.5-9.4,10.9-18.7,16.4-28.1c0.6-0.9,0.5-2.1-0.2-2.9c-5.2-9.1-10.4-18.1-15.6-27.2
			c-0.5-1.1-1.7-1.8-2.9-1.7c-10.8,0-21.7,0-32.5-0.1c-1.5-0.1-3,0.7-3.6,2.1c-5,8.8-10.2,17.6-15.3,26.4c-0.8,1.2-0.9,2.7-0.1,3.9
			c5.1,8.8,10.2,17.6,15.2,26.4c0.4,0.6,0.8,1.2,1.3,1.7l14.8-25.4c-0.2-0.5-0.4-0.9-0.6-1.4c-0.9-2.4-0.4-4.5,1.4-5.9
			c1.7-1.2,3.9-1.2,5.6-0.1c1.9,1.3,2.6,3.8,1.5,5.8c-0.6,1.4-0.1,2.3,0.5,3.4c4.1,7.2,8.3,14.3,12.4,21.5
			C252.6,165.6,253.1,166.2,253.5,166.8z M136.1,305.4c-1.1-0.1-2-0.2-2.8-0.2c-9.8,0-19.6,0-29.4-0.1c-1.6-0.2-3.1,0.7-3.8,2.2
			c-5,8.7-10,17.5-15.2,26.1c-0.9,1.2-0.9,2.9,0,4.1c5.4,9.3,10.8,18.6,16,28c0.6,1.4,2.1,2.2,3.6,2.1c3.9-0.1,7.8,0,11.7,0h21
			c5.8-9.9,11.6-19.8,17.5-30.1c-1-0.1-1.4-0.2-1.9-0.2c-8.5,0-16.9,0-25.4-0.1c-1.3-0.2-2.6,0.4-3.4,1.5c-1.2,1.8-3.6,2.4-5.6,1.5
			c-1.9-0.9-3-2.8-2.8-4.9c0.2-2.2,1.8-3.9,4-4.1c1.3-0.1,2.5-1,3-2.2c4.1-7.1,8.2-14.1,12.3-21.2
			C135.4,307,135.7,306.3,136.1,305.4z M310.6,266.3c0.2-0.2,0.4-0.4,0.6-0.6c5.4-9.3,10.8-18.6,16.2-27.8c0.6-1,0.5-2.2-0.2-3.1
			c-5.1-8.9-10.2-17.8-15.3-26.7c-0.5-1.1-1.7-1.8-2.9-1.7c-8.1,0-16.1,0-24.2-0.1c-2.7,0-5.4,0-8.5,0.1c0.5,1.1,0.9,1.9,1.3,2.6
			c4,7,8,14,12,21c0.6,1.3,1.8,2.2,3.2,2.4c2.7,0.4,4.6,2.9,4.2,5.6c-0.1,0.4-0.1,0.7-0.3,1.1c-0.6,1.3-0.4,2.8,0.4,4
			c4.1,7.1,8.2,14.3,12.4,21.5C309.7,265,310.1,265.5,310.6,266.3L310.6,266.3z M193.7,206.3c-0.9-0.1-1.6-0.2-2.2-0.2
			c-9.9,0-19.8,0-29.6-0.1c-1.8-0.2-3.5,0.8-4.2,2.4c-4.9,8.6-9.9,17.1-14.8,25.7c-0.4,0.6-0.7,1.3-1,2l17.3,30.1l14.9-25.6
			c-0.4-0.7-0.7-1.5-0.9-2.3c-0.7-2.9,1.1-6,3.9-6.2c1.9-0.2,2.6-1.1,3.4-2.5c4-6.9,8-13.8,12-20.7
			C192.8,208.1,193.2,207.3,193.7,206.3L193.7,206.3z M251.9,367.8l17.4-30c-1.9-0.1-3.2-0.2-4.5-0.2c-7.7,0-15.4,0-23.1,0
			c-1.2-0.1-2.4,0.4-3.1,1.4c-1.6,2.2-4.7,2.6-6.9,1c-0.4-0.3-0.7-0.6-1-1c-0.8-1.1-2.1-1.6-3.4-1.5c-7.8,0-15.6,0-23.4,0
			c-1.2,0-2.4,0.1-3.8,0.1c0.6,1.1,0.9,1.8,1.3,2.6c4.8,8.4,9.7,16.8,14.4,25.3c0.7,1.6,2.3,2.5,4.1,2.3c7.3,0,14.6,0.1,22,0.1
			C245.2,367.8,248.5,367.8,251.9,367.8L251.9,367.8z M218.7,103.5c11.3,0,22,0.2,33,0c-0.4-0.8-0.5-1.2-0.6-1.5l-13.8-24
			c-0.1-0.3-0.3-0.5-0.4-0.7c-1-1.3-2.2-1.3-3.2,0c-0.3,0.4-0.5,0.8-0.7,1.2c-4.3,7.5-8.7,14.9-13,22.4
			C219.6,101.7,219.3,102.4,218.7,103.5z M387.2,339.2L370.5,368c0.9,0.1,1.5,0.2,2,0.2h21.6c2.2,0,4.4,0.1,6.5,0
			c1.7-0.1,2.2-1.3,1.5-2.8c-0.3-0.6-0.6-1.2-1-1.7l-10.5-18.3L387.2,339.2z M82.1,338.4c-5.3,9.1-10.2,17.6-15.2,26.2
			c-0.8,1.4-0.1,2.5,1.6,2.7c0.9,0.1,1.7,0.1,2.6,0.1c8.7,0,17.3,0,26,0c0.5-0.1,1-0.2,1.5-0.4L82.1,338.4z M213.5,169.8l-16.7-29
			l-15.1,26l1.4,2.9L213.5,169.8z M365.7,301.8l-14.9-26l-3.4-0.3l-15.2,26.2L365.7,301.8z M103.7,301.2c11.4-0.1,22.2,0.2,33.4,0
			L122,274.9l-3.3,0.4L103.7,301.2z M286.8,170c1.6-1.9,1.5-3.4,0.3-5.3c-4.1-6.9-8.1-14-12.1-21c-0.5-0.8-1-1.5-1.7-2.6l-16.7,28.8
			L286.8,170z M141.9,367.5c1,0.1,1.5,0.2,1.9,0.2c8.6,0,17.1,0,25.7,0.1c2.2,0,3.3-0.9,4.2-2.9l-15-26.2L141.9,367.5z M310.6,339
			l-15.1,26.1c0.4,1.9,2.2,3.2,4.1,2.9c7.3-0.1,14.6,0,21.9,0c1.8,0,3.5-0.1,5.7-0.1L310.6,339z M251.4,169.9
			c-0.4-0.8-0.5-1.4-0.8-1.8c-4.5-7.8-9-15.7-13.5-23.5c-0.2-0.4-0.4-0.8-0.8-1.2c-0.6-0.7-1.6-0.8-2.3-0.2
			c-0.1,0.1-0.1,0.1-0.2,0.2c-0.4,0.4-0.7,0.9-0.9,1.4c-4.4,7.6-8.8,15.1-13.2,22.7c-0.4,0.6-0.6,1.3-1.1,2.3L251.4,169.9z
			 M194.3,268.5c-0.6-1.2-1-2-1.4-2.8c-3.2-5.6-6.4-11.2-9.6-16.8c-1.1-1.9-2.3-3.7-3.2-5.7c-0.4-1.1-1.7-1.6-2.8-1.2c0,0,0,0,0,0
			c-0.7,0.3-1.2,0.9-1.5,1.5c-4.5,7.7-9,15.4-13.4,23.1c-0.3,0.6-0.5,1.1-0.6,1.7L194.3,268.5z M313.1,334.8l22,0.1
			c2.7,0,5.3,0,8-0.1c1.7-0.1,2.3-1.2,1.6-2.7c-0.2-0.3-0.4-0.7-0.6-1c-4.4-7.7-8.8-15.3-13.2-23c-0.3-0.5-0.7-1-1.3-1.8
			L313.1,334.8z M253.6,305.8l-15.3,26.3c0.3,1.6,1.8,2.8,3.4,2.5c8.8,0,17.6,0,26.5,0c0.6-0.1,1.1-0.2,1.7-0.5L253.6,305.8z
			 M199.3,334.2c1.4,0.1,2.4,0.3,3.4,0.3c8.4,0,16.7,0,25.1,0.1c2,0,2.7-0.9,3.2-2.5l-15.2-26.4L199.3,334.2z M256.4,235.9l30.4,0.1
			c1.5-1.5,1.3-2.8,0.4-4.3c-4.4-7.4-8.6-15-12.9-22.4c-0.3-0.6-0.7-1.1-1.3-1.9L256.4,235.9z M139.7,305.7c-0.5,0.8-0.8,1-1,1.4
			L125,330.7c-0.2,0.3-0.4,0.7-0.6,1c-0.4,0.8-0.1,1.9,0.7,2.3c0.2,0.1,0.4,0.2,0.6,0.2c0.5,0,0.9,0,1.4,0c8,0,16,0.1,24,0.1
			c1.5,0,2.9-0.1,4.9-0.2L139.7,305.7z M308.2,268.8c-0.4-0.9-0.5-1.4-0.8-1.8c-4.4-7.7-8.8-15.3-13.2-23c-0.9-1.6-2.1-2-3.9-1.5
			c-4.9,8.5-10,17.1-15.1,26.2L308.2,268.8z M196.9,207l-15.2,26.2c0.1,1.6,1.5,2.7,3.1,2.6c0.1,0,0.1,0,0.2,0
			c8.8-0.1,17.5,0,26.2,0c0.6,0,1.2-0.1,2.1-0.2L196.9,207z M213.2,301.1l-16.1-28c-0.4,0.4-0.7,0.9-1.1,1.4
			c-4.5,7.7-9,15.4-13.4,23.1c-1.3,2.2-0.3,3.8,2.4,3.8c8.6,0,17.2,0,25.9,0C211.7,301.4,212.4,301.2,213.2,301.1L213.2,301.1z
			 M218.6,235.6c6.4,0.8,30.6,0.5,32.4-0.4c-4.6-8.1-9.3-16.1-13.9-24.2c-0.9-1.6-2.1-1.4-3.5-1.1L218.6,235.6z M286.1,301.6
			c1.8-1.6,1.4-2.8,0.5-4.3c-4.3-7.4-8.5-14.8-12.8-22.3c-0.3-0.5-0.7-1-1.2-1.8l-16.4,28.2L286.1,301.6z M314,268.8l30,0.1
			c1.5-1.5,1.3-2.8,0.4-4.3c-4.3-7.3-8.4-14.6-12.7-22c-0.4-0.7-0.9-1.3-1.4-1.9L314,268.8z M272.9,339.6l-16.2,27.9
			c0.7,0.1,1.5,0.2,2.2,0.3c5.4,0,10.8,0.1,16.2,0.1c3.3,0,6.6-0.1,10,0c1.2,0.2,2.3-0.6,2.5-1.8c0-0.8-0.2-1.6-0.7-2.3
			c-4.3-7.5-8.6-15-12.9-22.5C273.8,340.9,273.4,340.4,272.9,339.6L272.9,339.6z M218.6,301.4l32.6,0.1l-14.9-25.9
			c-2.2-0.7-3.2,0.3-4.1,1.9c-4,7.1-8.2,14.1-12.3,21.2C219.5,299.4,219.2,300.1,218.6,301.4L218.6,301.4z M125.4,268
			c4.8,0.6,27.9,0.5,30-0.2l-16-27.9l-15.1,26L125.4,268z M270.2,268.6l-16.3-28.4l-15.1,25.9l1.4,2.4L270.2,268.6z M161.6,201.9
			c5,0.2,30.1,0.7,32.1-0.2c-0.1-0.3-0.3-0.7-0.4-1c-4.4-7.7-8.8-15.3-13.2-23c-0.9-1.6-2-2.2-3.1-1.6c-0.7,0.5-1.2,1.1-1.6,1.9
			c-4.2,7.2-8.4,14.4-12.6,21.6C162.4,200.3,162.1,200.9,161.6,201.9z M199.7,268.2c0.3,0.1,0.7,0.2,1,0.3c9.1,0,18.2,0.1,27.4,0.1
			c2.3,0,3.2-1.8,2-3.9c-4.4-7.7-8.8-15.3-13.2-23c-0.3-0.4-0.6-0.8-1-1.2L199.7,268.2z M212.7,367.6l-16.3-28.4l-15.1,26.1
			c0.8,1.8,1.6,2.4,3.4,2.3c5.8-0.1,11.6,0,17.4,0.1C205.4,367.7,208.8,367.7,212.7,367.6L212.7,367.6z M290.9,176.4
			c-4.9,8.4-10,16.9-15,26l32.4,0.1c-0.1-0.4-0.2-0.8-0.4-1.2c-4.5-7.8-9-15.6-13.4-23.5C293.6,176.2,292.5,176.2,290.9,176.4
			L290.9,176.4z M270.3,202.3l-16.1-28.1c-1,1.6-1.7,2.9-2.5,4.2c-3.8,6.5-7.6,13-11.3,19.5c-0.6,1.1-1.2,2.1-0.3,3.4
			c0.7,1.2,1.8,1,2.8,1c7.4,0,14.8,0,22.2,0C266.6,202.4,268.2,202.3,270.3,202.3L270.3,202.3z M161.1,334.4c11.1,0,21.5,0.2,32.4,0
			l-14.8-25.7l-2.9,0.3L161.1,334.4z M199.6,202.2l29.4,0.1c1.8-1.6,1.4-3,0.4-4.7c-4.1-7-8.2-14.1-12.2-21.2
			c-0.4-0.6-0.8-1.2-1.4-2.1L199.6,202.2z M173.2,299c-5.1-10.1-13.5-24.1-15.1-25.2l-15.9,27.4l29.6,0.1L173.2,299z M308,334.8
			c-0.6-1.2-0.9-1.9-1.2-2.5c-4-7.1-8.2-14.1-12.1-21.3c-0.9-1.7-2-2.4-3.9-1.9c-3.6,4.8-14,23.4-14.2,25.5L308,334.8z M296.4,299
			c0.5,2,1.5,2.7,3.4,2.7c8.3,0,16.5,0,24.8,0c0.8,0,1.6-0.1,2.4-0.2c-2-4.7-14.5-25.9-16.1-27.4L296.4,299z M345.5,273.1l-0.5-0.8
			l-31.1-0.1c5.4,9.5,10.6,18.5,16,27.8L345.5,273.1z M213.3,172.8h-6.7c-7.4,0-14.8-0.1-22.2-0.1c-0.9,0-1.9-0.3-2.4,0.9
			c1.9,4.4,14,25.1,15.6,26.4L213.3,172.8z M193,337.4c-10.4,0.1-20.8-0.2-31.3,0c2,4.7,14.1,25.3,15.6,26.8
			C178.8,362.8,192,340.4,193,337.4z M257,173.2l15.8,27.5l15.6-27C286.1,172.8,262,172.5,257,173.2L257,173.2z M308,337.7
			c-11,0-21.2-0.2-31.6,0c0,0.4,0.1,0.8,0.3,1.2c4.7,8.2,9.4,16.3,14,24.5c0.5,0.6,1,1.1,1.5,1.5L308,337.7z M124.5,272.3
			c0.7,2.6,13.8,25.2,15.5,26.8l15.8-27.2c-10.5,0-20.4-0.1-30.4-0.1C125.1,271.8,124.8,272.1,124.5,272.3L124.5,272.3z
			 M103.8,370.5l15.8,27.5l15.9-27.4L103.8,370.5z M365.1,371.5c-3.3-0.7-29.2-0.5-31.2,0.2l15.4,26.9L365.1,371.5z M66.3,305
			l15.8,27.5L98,305.1L66.3,305z M272.9,134.1l15.9-27.4l-31.7-0.1L272.9,134.1z M197.4,133.9l15.9-27.4c-10.8,0-20.9-0.2-31.6,0
			L197.4,133.9z M371.5,305.8c5.4,9.4,10.4,18.2,15.7,27.3c4-5.6,14.9-25,15.3-27.2L371.5,305.8z M250.5,238.9l-31.2-0.1
			c0.5,1,0.7,1.5,0.9,1.9c4.2,7.4,8.5,14.8,12.8,22.3c0.2,0.3,0.4,0.7,0.6,1c0.8,1,1.7,1,2.5-0.1c0.3-0.5,0.6-1,0.9-1.5
			c4.1-7,8.1-14,12.1-20.9C249.6,240.8,249.9,240,250.5,238.9z M215.5,299.2c0.7-1.1,1.2-1.9,1.7-2.7l11.9-20.5
			c0.3-0.5,0.6-1,0.8-1.5c0.8-1.7,0.4-2.4-1.5-2.5c-0.2,0-0.4,0-0.6,0c-8.1,0-16.2-0.1-24.2-0.1c-1.1,0-2.2,0.1-3.6,0.2L215.5,299.2
			z M253.8,299.1c3-4,14.9-24.9,15.3-27c-3.7,0-7.4-0.1-11.1-0.1c-5.4,0-10.8-0.1-16.2,0c-2.8,0-3.1,0.7-1.7,3.1
			c3.3,5.8,6.6,11.5,9.9,17.3L253.8,299.1z M211.8,239.1c-0.4-0.2-0.7-0.3-1.1-0.3l-20.2-0.1c-2.2,0-4.4-0.1-6.6,0s-2.6,0.8-1.6,2.7
			c0.1,0.2,0.2,0.3,0.3,0.5c4.2,7.3,8.4,14.7,12.7,22c0.4,0.6,0.8,1.1,1.3,1.6L211.8,239.1z M250.3,305.6l-31-0.1
			c0.2,0.6,0.5,1.2,0.8,1.8c4.2,7.4,8.5,14.9,12.8,22.3c0.2,0.3,0.4,0.7,0.6,1c0.4,0.6,1.2,0.9,1.8,0.5c0.2-0.1,0.4-0.3,0.5-0.5
			c0.4-0.5,0.7-1.1,1-1.7l10.6-18.2L250.3,305.6z M273.3,266l14.2-24.5c0.1-0.1,0.1-0.2,0.1-0.2c0.6-1.3,0.2-2-1.1-2.2
			c-0.6-0.1-1.1-0.1-1.7-0.1c-7.7,0-15.4,0-23.1,0c-1.2,0-2.4,0.1-3.9,0.1L273.3,266z M124.4,206l15.5,27l15.6-27H124.4z
			 M314.4,206.5l15.5,27l15.6-26.9L314.4,206.5z M219,370.8l15.5,26.9c2.8-4.9,5.4-9.2,7.9-13.5s5.1-8.5,7.6-13.4L219,370.8z
			 M311.1,331.7c2.4-3,14.4-24,14.8-25.9c-0.5,0-1-0.1-1.4-0.1l-21.4,0c-1.4,0-2.9,0-4.3,0c-1.6,0.1-2.1,0.9-1.4,2.5
			c0.2,0.4,0.5,0.8,0.7,1.2c3.9,6.8,7.8,13.5,11.6,20.3C310.2,330.3,310.6,331,311.1,331.7L311.1,331.7z M200.4,206.1l15.1,26.3
			c4.9-7.1,14.2-23.8,14.5-26.2L200.4,206.1z M220,172.8c0.4,0.9,0.6,1.3,0.8,1.7c4.1,7.2,8.2,14.3,12.3,21.5c0.2,0.3,0.4,0.7,0.6,1
			c0.8,1,1.7,1.1,2.6,0.1c0.3-0.4,0.5-0.8,0.7-1.2c4-6.9,8-13.8,12-20.7c0.4-0.6,0.6-1.3,1.1-2.3L220,172.8z M287.5,306.5l-0.4-0.8
			c-9.7-0.3-19.4-0.1-29.6-0.2c5.2,9,10,17.6,15.2,26.4L287.5,306.5z M192.6,272.2c-4.9-0.7-28-0.5-29.8,0.2
			c2.6,5.9,13.3,23.9,15.1,25.1L192.6,272.2z M269.3,206.7c-4.1-0.7-27.5-0.6-29.9,0.3c4.8,8.5,9.7,16.9,14.8,25.7L269.3,206.7z
			 M143.3,305.3c1.1,3.2,13.4,24.4,15,25.8c0.2-0.2,0.4-0.4,0.5-0.6c4.3-7.4,8.6-14.8,12.9-22.1c0.2-0.3,0.4-0.7,0.5-1
			c0.3-0.6,0.1-1.4-0.5-1.7c-0.2-0.1-0.3-0.1-0.5-0.2c-0.7-0.1-1.3-0.1-2-0.1c-5.2,0-10.4-0.1-15.6-0.1
			C150.2,305.2,146.8,305.3,143.3,305.3L143.3,305.3z M307.3,272.2l-30.2-0.1c1.7,4.3,13.4,24.2,15.2,25.8L307.3,272.2z
			 M211.7,305.9c-3.6-0.8-27.3-0.7-29.4,0c0.5,2.2,12.7,23.5,14.6,25.4L211.7,305.9z"/>
	</g>
</g>
</svg>
